<svg width="51" height="35" viewBox="0 0 51 35" fill="none" xmlns="http://www.w3.org/2000/svg">
<path d="M26.8657 34.3652C27.4158 34.3652 27.8618 33.9193 27.8618 33.3691C27.8618 32.819 27.4158 32.373 26.8657 32.373C26.3155 32.373 25.8696 32.819 25.8696 33.3691C25.8696 33.9193 26.3155 34.3652 26.8657 34.3652Z" fill="white"/>
<path d="M50.6084 3.04207C50.3574 2.4484 49.9989 1.91648 49.5406 1.45928C49.0834 1.00107 48.5515 0.64248 47.9578 0.391465C47.3442 0.131484 46.6918 0 46.0194 0H4.98047C4.30811 0 3.65566 0.131484 3.04207 0.391465C2.4484 0.64248 1.91648 1.00107 1.45928 1.45828C1.00107 1.91648 0.64248 2.4484 0.391465 3.04207C0.131484 3.65566 0 4.30811 0 4.98047V29.3848C0 30.0571 0.131484 30.7096 0.391465 31.3232C0.64248 31.9168 1.00107 32.4487 1.45928 32.906C1.91648 33.3642 2.4484 33.7228 3.04207 33.9738C3.65566 34.2337 4.30811 34.3652 4.98047 34.3652H22.3832C22.9331 34.3652 23.3793 33.918 23.3793 33.3691C23.3793 32.8203 22.9331 32.373 22.3832 32.373H4.98047C3.33592 32.3701 1.99518 31.0293 1.99219 29.3848V5.97656H49.0078V29.3848C49.0048 31.0293 47.6641 32.3701 46.0195 32.373H31.3481C30.7992 32.373 30.352 32.8203 30.352 33.3691C30.352 33.918 30.7992 34.3652 31.3481 34.3652H46.0195C46.6919 34.3652 47.3443 34.2337 47.9579 33.9738C48.5516 33.7228 49.0835 33.3642 49.5407 32.906C49.999 32.4487 50.3575 31.9168 50.6085 31.3232C50.8685 30.7096 51.0001 30.0571 51.0001 29.3848V4.98047C51 4.30811 50.8685 3.65566 50.6084 3.04207ZM4.98047 1.99219H46.0195C47.315 1.99448 48.4214 2.82721 48.8344 3.98438H2.16561C2.57859 2.82721 3.68495 1.99448 4.98047 1.99219Z" fill="white"/>
<path d="M39.3457 26.3467C39.8958 26.3467 40.3418 25.9007 40.3418 25.3506C40.3418 24.8005 39.8958 24.3545 39.3457 24.3545C38.7956 24.3545 38.3496 24.8005 38.3496 25.3506C38.3496 25.9007 38.7956 26.3467 39.3457 26.3467Z" fill="white"/>
<path d="M34.8633 26.3467C35.4134 26.3467 35.8594 25.9007 35.8594 25.3506C35.8594 24.8005 35.4134 24.3545 34.8633 24.3545C34.3132 24.3545 33.8672 24.8005 33.8672 25.3506C33.8672 25.9007 34.3132 26.3467 34.8633 26.3467Z" fill="white"/>
<path d="M25.8984 26.3467C26.4486 26.3467 26.8945 25.9007 26.8945 25.3506C26.8945 24.8005 26.4486 24.3545 25.8984 24.3545C25.3483 24.3545 24.9023 24.8005 24.9023 25.3506C24.9023 25.9007 25.3483 26.3467 25.8984 26.3467Z" fill="white"/>
<path d="M30.3809 26.3467C30.931 26.3467 31.377 25.9007 31.377 25.3506C31.377 24.8005 30.931 24.3545 30.3809 24.3545C29.8307 24.3545 29.3848 24.8005 29.3848 25.3506C29.3848 25.9007 29.8307 26.3467 30.3809 26.3467Z" fill="white"/>
<path d="M25.8984 20.7686H32.6719C33.2207 20.7686 33.668 20.3213 33.668 19.7725C33.668 19.2236 33.2207 18.7764 32.6719 18.7764H25.8984C25.3496 18.7764 24.9023 19.2236 24.9023 19.7725C24.9023 20.3213 25.3496 20.7686 25.8984 20.7686Z" fill="white"/>
<path d="M25.8984 16.7842H39.3457C39.8946 16.7842 40.3418 16.3369 40.3418 15.7881C40.3418 15.2392 39.8946 14.792 39.3457 14.792H25.8984C25.3496 14.792 24.9023 15.2392 24.9023 15.7881C24.9023 16.3369 25.3496 16.7842 25.8984 16.7842Z" fill="white"/>
<path d="M25.8984 12.7998H39.3457C39.8946 12.7998 40.3418 12.3526 40.3418 11.8037C40.3418 11.2549 39.8946 10.8076 39.3457 10.8076H25.8984C25.3496 10.8076 24.9023 11.2549 24.9023 11.8037C24.9023 12.3526 25.3496 12.7998 25.8984 12.7998Z" fill="white"/>
<path d="M5.47852 24.6533C5.47852 25.2035 5.92447 25.6494 6.47461 25.6494H18.4277C18.9779 25.6494 19.4238 25.2035 19.4238 24.6533C19.4238 21.9254 17.8483 19.5598 15.5602 18.4148C16.406 17.599 16.9336 16.4555 16.9336 15.1904C16.9336 12.7188 14.9228 10.708 12.4512 10.708C9.97956 10.708 7.96875 12.7188 7.96875 15.1904C7.96875 16.4555 8.49638 17.599 9.34216 18.4148C7.05404 19.5598 5.47852 21.9254 5.47852 24.6533ZM9.96094 15.1904C9.96094 13.8173 11.0781 12.7002 12.4512 12.7002C13.8243 12.7002 14.9414 13.8173 14.9414 15.1904C14.9414 16.5635 13.8243 17.6807 12.4512 17.6807C11.0781 17.6807 9.96094 16.5635 9.96094 15.1904ZM12.4512 19.6729C14.8563 19.6729 16.8687 21.3867 17.3316 23.6572H7.57071C8.0336 21.3867 10.046 19.6729 12.4512 19.6729Z" fill="white"/>
</svg>

