<svg width="234" height="272" viewBox="0 0 234 272" fill="none" xmlns="http://www.w3.org/2000/svg">
<line x1="1" y1="271" x2="233" y2="271" stroke="#263238" stroke-width="2" stroke-linecap="round" stroke-linejoin="round"/>
<path d="M139.257 179.967V180.117C138.917 181.447 136.407 191.287 133.107 204.287L132.367 207.167C126.867 228.777 119.537 257.557 116.077 271.167H108.607C108.607 271.327 108.607 271.497 108.607 271.657C108.607 271.487 108.607 271.327 108.607 271.167H53.7573C59.3973 249.167 73.7573 191.667 76.2373 181.497L76.3773 180.947L76.6273 179.947L139.257 179.967Z" fill="#FFC4C0"/>
<path d="M139.257 179.967V180.117L133.547 205.117L132.867 208.117L118.407 271.227H108.567C108.567 271.387 108.567 271.557 108.567 271.717C108.567 271.547 108.567 271.387 108.567 271.227H53.4172L76.2372 181.557L76.3772 181.007L76.6272 180.007L139.257 179.967Z" fill="#263238"/>
<path d="M171.057 271.227H108.567C108.567 271.387 108.567 271.557 108.567 271.717C108.567 271.547 108.567 271.387 108.567 271.227C108.567 270.227 108.487 269.307 108.457 268.387C108.457 267.167 108.367 265.927 108.317 264.707C108.317 264.247 108.317 263.797 108.257 263.347C108.257 263.06 108.257 262.77 108.257 262.477C108.257 262.087 108.257 261.707 108.257 261.317C108.257 260.927 108.257 260.397 108.197 259.957C108.137 259.517 108.197 259.037 108.197 258.587C108.197 258.397 108.197 258.207 108.197 258.017C108.197 257.217 108.127 256.467 108.097 255.747C108.097 255.407 108.097 255.077 108.097 254.747C108.097 254.607 108.097 254.467 108.097 254.327V254.227C108.097 254.077 108.097 253.927 108.097 253.787C108.102 253.704 108.102 253.62 108.097 253.537C108.097 253.167 108.097 252.817 108.097 252.487C108.103 252.404 108.103 252.32 108.097 252.237C108.097 252.107 108.097 251.977 108.097 251.847C108.097 251.417 108.097 251.027 108.047 250.667C107.997 250.307 108.047 250.227 108.047 250.027C108.047 249.827 108.047 249.437 108.047 249.207C108.053 249.12 108.053 249.034 108.047 248.947C108.053 248.867 108.053 248.787 108.047 248.707C108.047 248.467 108.047 248.347 108.047 248.347L107.517 248.037L106.807 247.627H106.757H106.707L106.047 247.227C105.047 246.657 104.107 246.127 103.197 245.627L102.297 245.137L100.587 244.237C99.4773 243.657 98.4373 243.137 97.4773 242.667L96.0973 242.007L95.4573 241.707L95.3173 241.637L94.6473 241.327C94.1373 241.087 93.6473 240.887 93.2273 240.697L92.0573 240.227C91.2773 239.897 90.6673 239.657 90.2473 239.497L90.0173 239.407L89.7973 239.327L89.5973 239.257H89.5073C89.4273 239.047 89.3573 238.837 89.2873 238.627C89.2173 238.417 89.1273 238.197 89.0573 237.977C88.8273 237.317 88.6073 236.647 88.3873 235.977C88.1673 235.307 87.8873 234.367 87.6473 233.547C87.4773 232.997 87.3173 232.437 87.1573 231.877C86.9973 231.317 86.8573 230.877 86.7173 230.317C86.0473 227.927 85.4373 225.487 84.8773 223.037C84.7573 222.544 84.6473 222.054 84.5473 221.567C84.4173 220.987 84.2873 220.407 84.1673 219.827C83.9273 218.697 83.6973 217.577 83.4773 216.457C83.3873 216.037 83.2973 215.627 83.2173 215.207C82.6873 212.407 82.2173 209.647 81.7773 206.987L81.6573 206.197L81.3273 204.037C81.2373 203.407 81.1373 202.777 81.0473 202.147C80.8473 200.687 80.6473 199.267 80.4673 197.887L80.3473 196.887C80.2273 195.887 80.1073 194.887 79.9973 193.987C79.9373 193.517 79.8873 193.047 79.8373 192.597C79.7873 192.147 79.7473 191.847 79.7073 191.477L79.6173 190.657C79.6228 190.59 79.6228 190.524 79.6173 190.457C79.5673 189.997 79.5173 189.547 79.4773 189.117C79.3473 187.827 79.2373 186.647 79.1373 185.597C79.0773 184.97 79.0273 184.39 78.9873 183.857C78.9928 183.834 78.9928 183.81 78.9873 183.787C78.8973 182.787 78.8373 181.917 78.7873 181.287C78.7873 180.857 78.7273 180.527 78.7173 180.287C78.7073 180.047 78.7173 180.007 78.7173 179.967H126.397H164.047C164.047 179.967 164.277 182.967 164.707 188.237C164.707 188.767 164.787 189.327 164.827 189.907C165.077 193.007 165.367 196.737 165.697 200.987C165.747 201.567 165.797 202.167 165.847 202.767C166.007 204.917 166.187 207.197 166.387 209.587C166.487 210.997 166.607 212.437 166.717 213.897C166.717 214.447 166.807 214.987 166.847 215.537C167.107 218.767 167.367 222.147 167.637 225.657C168.357 234.887 169.137 244.967 169.947 255.387C169.947 255.547 169.947 255.707 169.947 255.867C170.137 258.537 170.347 261.227 170.557 263.927C170.727 266.347 170.907 268.767 171.057 271.227Z" fill="#FFC4C0"/>
<path d="M173.987 271.227H108.567C108.567 270.297 108.487 269.347 108.447 268.387C108.447 267.167 108.357 265.927 108.307 264.707C108.227 262.597 108.147 260.517 108.067 258.587C108.067 258.397 108.067 258.207 108.067 258.017C108.017 256.697 107.967 255.457 107.917 254.337V254.227C107.917 253.607 107.867 253.027 107.847 252.487C107.853 252.404 107.853 252.32 107.847 252.237C107.847 251.377 107.787 250.627 107.757 250.027C107.757 249.717 107.757 249.437 107.757 249.207C107.763 249.12 107.763 249.034 107.757 248.947C107.763 248.867 107.763 248.787 107.757 248.707C107.757 248.467 107.757 248.347 107.757 248.347L107.227 248.037L106.517 247.627L105.757 247.187C104.757 246.617 103.817 246.087 102.907 245.587C101.997 245.087 101.127 244.587 100.297 244.197C99.1874 243.617 98.1474 243.097 97.1874 242.627L95.8074 241.967L95.1674 241.667L95.0274 241.607L94.3574 241.307L92.9374 240.677L92.0574 240.227C91.2774 239.897 90.6674 239.657 90.2474 239.497L90.0174 239.407L89.7974 239.327L89.5974 239.257H89.5074C89.4274 239.047 89.3574 238.837 89.2874 238.627C89.2174 238.417 89.1174 238.187 89.0474 237.967C88.8174 237.307 88.5974 236.637 88.3874 235.967C88.1774 235.297 87.8874 234.357 87.6474 233.537C87.4774 232.987 87.3174 232.427 87.1574 231.867C86.9974 231.307 86.8574 230.867 86.7174 230.307C86.0474 227.917 85.4374 225.477 84.8774 223.027C84.7574 222.534 84.6474 222.044 84.5474 221.557C84.4174 220.977 84.2874 220.397 84.1674 219.817C83.9374 218.707 83.7074 217.587 83.4874 216.477C82.7874 212.977 82.1874 209.527 81.6674 206.217L81.3374 204.057C81.2474 203.427 81.1474 202.797 81.0574 202.167C80.8574 200.707 80.6574 199.287 80.4774 197.907L80.3574 196.907C80.2374 195.907 80.1174 194.907 80.0074 194.007C79.9474 193.537 79.8974 193.067 79.8474 192.617C79.7974 192.167 79.7574 191.867 79.7174 191.497L79.6274 190.677C79.6328 190.611 79.6328 190.544 79.6274 190.477C79.5774 190.017 79.5374 189.567 79.4874 189.137C79.3574 187.847 79.2474 186.667 79.1474 185.617C79.0974 184.987 79.0374 184.407 78.9974 183.877C79.0029 183.854 79.0029 183.83 78.9974 183.807C78.9174 182.807 78.8474 181.937 78.7974 181.307C78.7974 180.877 78.7474 180.547 78.7274 180.307C78.7074 180.067 78.7274 180.027 78.7274 179.987H164.057C164.057 179.987 179.147 202.897 171.657 232.987C171.587 232.997 173.057 256.897 173.987 271.227Z" fill="#263238"/>
<path d="M115.567 251.577C112.697 249.577 109.567 247.907 106.567 246.187C103.567 244.467 100.297 242.747 97.0473 241.237C90.6601 238.414 84.0882 236.028 77.3773 234.097C77.2073 234.037 77.0973 234.317 77.2573 234.387C83.6773 237.147 89.8973 240.297 96.2573 243.127C99.4673 244.557 102.697 245.917 105.917 247.337C109.137 248.757 112.267 250.337 115.507 251.707C115.587 251.737 115.647 251.637 115.567 251.577Z" fill="#455A64"/>
<path d="M98.0574 220.227C97.9774 217.087 97.7574 213.937 97.5974 210.797C97.2374 203.377 96.9474 195.917 96.2574 188.517C96.2574 188.456 96.2331 188.397 96.19 188.354C96.1469 188.311 96.0884 188.287 96.0274 188.287C95.9664 188.287 95.9079 188.311 95.8647 188.354C95.8216 188.397 95.7974 188.456 95.7974 188.517C95.7074 194.257 95.9274 200.017 96.0374 205.757C96.0974 208.627 96.1874 211.497 96.2574 214.367C96.4173 217.107 96.4373 219.854 96.3174 222.597C96.1674 224.667 95.7074 228.687 93.0074 228.937C90.4674 229.177 89.0674 226.427 88.4374 224.417C86.8174 219.307 86.2474 213.787 85.7274 208.477C85.4174 205.327 85.1074 202.187 84.9174 199.037C84.6294 195.812 84.5259 192.573 84.6074 189.337C84.6074 189.137 84.2974 189.137 84.2874 189.337C84.1074 192.577 83.6674 195.797 83.5574 199.057C83.4474 202.317 83.4374 205.537 83.6474 208.767C83.8574 211.997 84.1074 214.977 84.5774 218.047C84.8937 220.857 85.5657 223.616 86.5774 226.257C87.5174 228.437 89.1274 230.437 91.5774 230.917C91.8778 230.971 92.1821 231.001 92.4874 231.007C92.4874 231.667 92.6074 232.337 92.6474 233.007C92.7274 234.007 92.8574 235.087 92.9974 236.117C93.1385 237.13 93.349 238.132 93.6274 239.117C93.8484 240.117 94.205 241.083 94.6874 241.987C94.707 242.014 94.7346 242.035 94.7665 242.045C94.7983 242.056 94.8327 242.056 94.8648 242.046C94.8969 242.036 94.9251 242.017 94.9453 241.99C94.9655 241.963 94.9767 241.93 94.9774 241.897C95.0069 240.891 94.923 239.884 94.7274 238.897C94.5974 237.897 94.4474 236.897 94.2474 235.897C94.0474 234.897 93.8574 233.897 93.6574 232.947C93.5174 232.287 93.4274 231.607 93.3074 230.947C94.0954 230.812 94.8372 230.482 95.4657 229.988C96.0943 229.494 96.5898 228.851 96.9074 228.117C97.8896 225.61 98.283 222.91 98.0574 220.227Z" fill="#455A64"/>
<path d="M166.117 218.367C161.617 218.677 157.177 219.257 152.657 218.717C148.404 218.288 144.351 216.7 140.937 214.127C133.507 208.367 130.257 198.947 128.247 190.127C128.234 190.092 128.21 190.063 128.178 190.044C128.146 190.026 128.108 190.019 128.072 190.025C128.035 190.03 128.002 190.049 127.977 190.077C127.953 190.104 127.939 190.14 127.937 190.177C128.777 197.837 130.427 205.767 135.367 211.937C137.5 214.649 140.195 216.867 143.267 218.437C146.533 219.956 150.107 220.692 153.707 220.587C157.924 220.549 162.12 219.984 166.197 218.907C166.233 218.902 166.267 218.89 166.298 218.871C166.328 218.853 166.355 218.828 166.376 218.8C166.398 218.771 166.413 218.738 166.422 218.703C166.431 218.669 166.432 218.632 166.427 218.597C166.422 218.562 166.41 218.527 166.391 218.497C166.373 218.466 166.349 218.439 166.32 218.418C166.291 218.396 166.258 218.381 166.224 218.372C166.189 218.364 166.153 218.362 166.117 218.367Z" fill="#455A64"/>
<path d="M108.567 271.227C108.567 271.387 108.567 271.557 108.567 271.717C108.567 271.547 108.567 271.387 108.567 271.227H108.247C107.927 266.297 107.187 251.397 107.137 248.027V247.517C107.137 247.387 107.667 247.577 107.687 247.707C107.707 247.837 107.687 247.997 107.687 248.197C108.027 251.417 108.857 262.947 109.057 266.797C109.127 268.267 109.197 269.797 109.237 271.227H108.567Z" fill="#455A64"/>
<path d="M93.6873 54.607C93.0016 55.0923 92.4763 55.7713 92.1788 56.5569C91.8813 57.3426 91.8251 58.1991 92.0173 59.017C92.2638 60.0594 92.893 60.9711 93.7803 61.5712C94.6676 62.1714 95.748 62.4162 96.8073 62.257C96.6993 62.8506 96.7163 63.4603 96.8573 64.047C97.1207 65.1838 97.7984 66.1816 98.7582 66.8454C99.7179 67.5093 100.891 67.7915 102.047 67.637C101.968 68.136 101.988 68.6459 102.107 69.137C102.289 69.918 102.687 70.632 103.256 71.1969C103.825 71.7617 104.542 72.1545 105.324 72.33C106.107 72.5055 106.923 72.4566 107.679 72.1889C108.435 71.9213 109.1 71.4457 109.597 70.817C109.921 71.8315 110.616 72.6864 111.543 73.2111C112.47 73.7357 113.561 73.8913 114.597 73.647C115.187 73.5102 115.739 73.2476 116.217 72.877C116.23 73.0053 116.253 73.1325 116.287 73.257C116.492 74.1342 116.97 74.9239 117.652 75.5125C118.334 76.1011 119.186 76.4583 120.083 76.5328C120.981 76.6072 121.88 76.3951 122.649 75.9269C123.419 75.4587 124.021 74.7585 124.367 73.927C124.771 74.8117 125.469 75.5292 126.342 75.9576C127.216 76.386 128.21 76.4989 129.157 76.277C129.899 76.1019 130.581 75.7313 131.131 75.2038C131.682 74.6762 132.081 74.0109 132.287 73.277C133.252 73.7281 134.339 73.8442 135.377 73.607C135.986 73.4692 136.56 73.2082 137.064 72.8402C137.568 72.4721 137.991 72.0048 138.307 71.467C138.996 71.9004 139.787 72.1462 140.6 72.1799C141.414 72.2136 142.222 72.034 142.944 71.6591C143.667 71.2841 144.279 70.7267 144.72 70.0423C145.161 69.3578 145.415 68.57 145.457 67.757C146.006 67.8611 146.569 67.8611 147.117 67.757C148.123 67.5261 149.011 66.9371 149.614 66.0999C150.218 65.2626 150.496 64.2343 150.397 63.207C151.075 63.362 151.779 63.362 152.457 63.207C153.669 62.9283 154.721 62.1797 155.381 61.1258C156.041 60.0719 156.255 58.799 155.977 57.587C155.86 57.0858 155.657 56.6087 155.377 56.177C155.627 56.1754 155.875 56.1452 156.117 56.087C157.216 55.832 158.17 55.1525 158.769 54.1969C159.369 53.2414 159.566 52.0873 159.317 50.987C159.129 50.2323 158.742 49.5418 158.197 48.987C159.304 48.6247 160.235 47.8613 160.807 46.8471C161.378 45.8329 161.55 44.6413 161.287 43.507C161.098 42.6469 160.672 41.8571 160.057 41.227C160.864 40.6999 161.489 39.9372 161.846 39.0426C162.204 38.148 162.278 37.1649 162.057 36.227C161.899 35.5308 161.582 34.8806 161.131 34.3272C160.68 33.7738 160.107 33.3322 159.457 33.037C159.797 32.549 160.029 31.9951 160.14 31.4112C160.251 30.8273 160.238 30.2266 160.101 29.6482C159.964 29.0699 159.707 28.5268 159.346 28.0545C158.985 27.5822 158.529 27.1912 158.007 26.907C158.554 26.2473 158.908 25.4505 159.033 24.6032C159.158 23.7558 159.047 22.8906 158.714 22.1016C158.381 21.3126 157.838 20.6301 157.144 20.1285C156.449 19.627 155.631 19.3255 154.777 19.257C154.95 18.5951 154.961 17.9012 154.81 17.2341C154.658 16.5671 154.348 15.9463 153.905 15.4245C153.463 14.9026 152.901 14.495 152.268 14.2361C151.635 13.9772 150.949 13.8746 150.267 13.937C150.421 13.2791 150.421 12.5948 150.267 11.937C150.129 11.3384 149.875 10.773 149.518 10.273C149.161 9.77297 148.709 9.34825 148.188 9.02314C147.667 8.69802 147.087 8.4789 146.481 8.37831C145.875 8.27773 145.255 8.29766 144.657 8.43697C144.308 8.5171 143.972 8.64496 143.657 8.81696C143.645 8.56397 143.608 8.31277 143.547 8.06696C143.269 6.85767 142.521 5.80856 141.469 5.15033C140.417 4.49211 139.147 4.27867 137.937 4.55696C137.552 4.63879 137.182 4.77695 136.837 4.96697C136.877 4.52447 136.844 4.07835 136.737 3.64696C136.53 2.73017 136.051 1.8971 135.363 1.25626C134.676 0.615416 133.811 0.196493 132.882 0.0540503C131.953 -0.0883929 131.002 0.0522567 130.154 0.45766C129.306 0.863064 128.6 1.51445 128.127 2.32697C127.572 1.73972 126.873 1.30796 126.099 1.07463C125.326 0.841309 124.504 0.814538 123.717 0.996967C122.538 1.26856 121.51 1.98512 120.847 2.99697C120.454 2.26746 119.857 1.6687 119.128 1.27436C118.399 0.880013 117.571 0.70728 116.746 0.777408C115.92 0.847537 115.133 1.15747 114.481 1.66907C113.829 2.18068 113.341 2.87163 113.077 3.65696C112.473 3.19884 111.757 2.91075 111.004 2.82253C110.251 2.73431 109.488 2.84919 108.794 3.15526C108.1 3.46133 107.501 3.94745 107.059 4.56318C106.616 5.1789 106.346 5.90182 106.277 6.65696C105.746 6.27989 105.14 6.02062 104.5 5.89646C103.86 5.77229 103.201 5.78611 102.567 5.93697C101.514 6.17473 100.576 6.76994 99.9125 7.62136C99.2489 8.47277 98.9007 9.5278 98.9273 10.607C98.4079 10.5323 97.8793 10.5526 97.3673 10.667C96.2685 10.9239 95.3166 11.6062 94.7204 12.5643C94.1242 13.5223 93.9325 14.6777 94.1873 15.777C94.3033 16.277 94.5101 16.7515 94.7973 17.177L94.5273 17.227C93.9261 17.3649 93.3581 17.6201 92.8557 17.9778C92.3533 18.3356 91.9264 18.7889 91.5995 19.3118C91.2725 19.8348 91.0519 20.4171 90.9503 21.0254C90.8487 21.6337 90.868 22.2561 91.0073 22.857C91.1074 23.3004 91.2761 23.7255 91.5073 24.117C91.1273 24.0989 90.7466 24.1359 90.3773 24.227C89.5556 24.4145 88.8084 24.8427 88.2312 25.4569C87.654 26.071 87.2729 26.8432 87.1366 27.675C87.0003 28.5067 87.115 29.3602 87.466 30.1264C87.817 30.8927 88.3884 31.537 89.1073 31.977C88.6166 32.4144 88.2342 32.9597 87.9899 33.5699C87.7456 34.1801 87.6462 34.8387 87.6995 35.4939C87.7529 36.149 87.9574 36.7829 88.2971 37.3456C88.6368 37.9083 89.1024 38.3846 89.6573 38.737C88.8038 39.2276 88.1272 39.9754 87.7241 40.8735C87.321 41.7716 87.212 42.7742 87.4127 43.738C87.6135 44.7017 88.1136 45.5774 88.8418 46.2399C89.57 46.9024 90.4889 47.3179 91.4673 47.427C90.9394 47.9329 90.5543 48.5691 90.3506 49.2714C90.147 49.9736 90.132 50.7171 90.3073 51.427C90.5052 52.2259 90.9294 52.9508 91.5288 53.5148C92.1283 54.0788 92.8777 54.458 93.6873 54.607Z" fill="#263238"/>
<path d="M108.637 97.047C103.907 107.477 75.6374 161.047 58.8374 161.567C38.4674 162.217 19.4574 113.207 16.5674 97.2869C15.7574 92.8569 52.5674 88.1369 55.0474 95.7069C58.8674 107.397 62.8874 115.557 64.3174 115.517C67.2574 115.447 81.8974 97.5169 99.8574 87.0969C110.297 81.0369 112.287 89.017 108.637 97.047Z" fill="#FFC4C0"/>
<path d="M13.2373 74.4069C11.9873 82.5669 15.9573 100.267 18.5573 104.167C21.1573 108.067 51.4673 102.327 53.6473 98.0369C55.8273 93.7469 57.9173 65.9369 53.7073 58.6369C49.4973 51.3369 14.5373 65.9469 13.2373 74.4069Z" fill="#FFC4C0"/>
<path d="M54.4673 70.497C50.6373 72.607 43.4073 75.817 43.2173 75.357C43.2973 75.797 44.5373 83.497 40.0473 85.417C35.3673 87.417 33.8473 80.507 33.7573 80.067C33.6973 80.507 32.8573 86.327 29.1073 87.007C22.6673 88.167 24.4173 73.237 20.9573 69.227C20.9573 69.227 13.4873 74.307 13.2373 74.407C13.2373 74.407 14.6073 60.167 20.2373 55.807C21.0477 55.1544 22.0568 54.7986 23.0973 54.7986C24.1378 54.7986 25.1469 55.1544 25.9573 55.807C25.9573 55.807 25.8873 51.167 29.3773 49.547C31.1773 48.727 34.0973 50.857 34.0973 50.857C34.0973 50.857 35.0073 25.917 41.8073 27.387C48.6073 28.857 45.6173 55.387 45.6173 55.387C45.6173 55.387 50.2273 29.387 56.9973 30.957C64.2273 32.657 56.3973 69.447 54.4673 70.497Z" fill="#FFC4C0"/>
<path d="M34.1373 50.767C34.0873 50.687 34.2073 50.607 34.2773 50.677C39.6273 56.877 43.7773 66.207 43.5273 75.477C43.5273 75.797 43.1973 76.077 43.1773 75.707C42.8673 69.527 38.1873 57.227 34.1373 50.767Z" fill="#263238"/>
<path d="M33.5173 80.7069C33.4073 71.8069 30.4573 63.8369 26.2473 56.0869C26.1873 55.9769 26.3373 55.9169 26.4073 55.9869C29.4973 59.2169 31.6673 64.4369 33.0073 68.6469C34.3303 72.526 34.613 76.6843 33.8273 80.7069C33.7873 80.8669 33.5173 80.8969 33.5173 80.7069Z" fill="#263238"/>
<path d="M20.9573 69.2271C21.5896 70.2907 22.0012 71.4708 22.1673 72.6971C22.4173 73.9071 22.6073 75.1371 22.7773 76.3671C23.0912 78.8656 23.6369 81.3296 24.4073 83.7271C24.8059 85.0333 25.5733 86.1965 26.6173 87.0771C27.2452 87.4855 27.9782 87.7029 28.7273 87.7029C29.4764 87.7029 30.2093 87.4855 30.8373 87.0771C31.9818 86.2894 32.866 85.1789 33.3773 83.8871C33.5273 83.5371 33.6773 83.1671 33.8073 82.8071C34.1355 83.6329 34.591 84.4022 35.1573 85.0871C35.8011 85.8685 36.701 86.3965 37.6973 86.5771C38.6734 86.7324 39.6737 86.5895 40.5673 86.1671C41.4054 85.7405 42.1398 85.1352 42.7186 84.394C43.2974 83.6528 43.7066 82.7936 43.9173 81.877C44.9173 77.877 43.4473 72.2471 43.4473 72.2471L42.9273 73.4471C43.3103 76.1104 43.2052 78.8213 42.6173 81.4471C42.4418 82.1666 42.1158 82.8407 41.6607 83.4251C41.2057 84.0094 40.6319 84.4907 39.9773 84.8371C39.3658 85.1525 38.6644 85.2481 37.9908 85.1079C37.3172 84.9677 36.7122 84.6002 36.2773 84.067C35.325 82.8587 34.6984 81.4265 34.4573 79.907L33.6373 75.737L33.0473 79.927C32.8858 81.0959 32.5731 82.2388 32.1173 83.3271C31.7268 84.3776 31.0301 85.2868 30.1173 85.9371C29.6984 86.2176 29.2091 86.3748 28.7052 86.3907C28.2013 86.4067 27.703 86.2806 27.2673 86.0271C26.3798 85.321 25.7106 84.3779 25.3373 83.3071C24.489 80.9919 23.8203 78.6149 23.3373 76.1971C23.0673 74.9871 22.7873 73.767 22.4473 72.567C22.1844 71.3635 21.6773 70.2267 20.9573 69.2271Z" fill="#263238"/>
<path d="M54.8374 93.3569C54.8374 93.3569 73.3575 63.6169 58.1875 62.0769C53.6775 61.6169 34.6174 65.0769 35.2374 68.9569C36.0574 73.9569 44.2374 73.9569 49.4474 73.1369C49.4474 73.1369 41.7274 82.3669 46.5574 89.6669C47.4627 90.986 48.7154 92.0289 50.1768 92.6802C51.6381 93.3315 53.2512 93.5657 54.8374 93.3569Z" fill="#FFC4C0"/>
<path d="M59.4373 62.2871C57.6892 61.8974 55.8934 61.766 54.1073 61.8971C52.3218 61.975 50.544 62.1789 48.7872 62.5071C45.2434 63.1031 41.7597 64.0134 38.3773 65.2271C37.4805 65.5489 36.6324 65.9931 35.8573 66.5471C35.4179 66.8771 35.0533 67.2963 34.7872 67.7771C34.6394 68.0412 34.538 68.3287 34.4872 68.6271C34.4421 68.922 34.4421 69.2221 34.4872 69.5171C34.6734 70.5777 35.2297 71.538 36.0572 72.2271C36.8321 72.8311 37.7047 73.2978 38.6373 73.6071C40.4118 74.1623 42.2698 74.4026 44.1273 74.3171C45.9339 74.278 47.7353 74.1076 49.5173 73.8071L48.9572 72.8071C48.1088 73.8886 47.3686 75.0509 46.7473 76.2771C46.1233 77.4878 45.6209 78.7573 45.2473 80.0671C44.8924 81.3697 44.7307 82.7174 44.7673 84.0671C44.798 85.417 45.09 86.7482 45.6273 87.9871C45.266 86.7136 45.1206 85.3886 45.1972 84.0671C45.3046 82.7534 45.594 81.461 46.0572 80.2271C46.4847 78.9954 47.0341 77.8095 47.6972 76.6871C48.3492 75.5735 49.1024 74.5224 49.9472 73.5471L51.0072 72.3571L49.3873 72.5271C47.6632 72.7541 45.9262 72.8677 44.1873 72.8671C42.4934 72.8976 40.8056 72.6579 39.1873 72.1571C37.6773 71.6371 36.1872 70.6171 36.0072 69.2571C35.7172 68.0871 37.4172 67.1271 38.9472 66.4971C40.5835 65.8474 42.2524 65.2833 43.9472 64.8071C45.6372 64.2971 47.3373 63.8071 49.0473 63.4171C52.3973 62.6871 55.8973 61.9171 59.4373 62.2871Z" fill="#263238"/>
<path d="M91.9272 129.027L78.9272 100.127C78.9272 100.127 91.4672 90.3069 99.1772 85.8469C109.367 79.9569 113.947 82.357 109.297 96.027C106.177 105.227 91.9272 129.027 91.9272 129.027Z" fill="#33A66A"/>
<path d="M85.7174 99.7969C85.7194 100.154 85.6152 100.503 85.4182 100.801C85.2212 101.098 84.9402 101.33 84.6109 101.468C84.2816 101.605 83.9188 101.642 83.5687 101.573C83.2186 101.504 82.897 101.332 82.6446 101.08C82.3923 100.827 82.2207 100.506 82.1515 100.156C82.0824 99.8055 82.1189 99.4427 82.2564 99.1134C82.3938 98.7841 82.6261 98.5031 82.9236 98.3061C83.2212 98.1091 83.5705 98.0049 83.9274 98.0069C84.4021 98.0069 84.8574 98.1955 85.1931 98.5312C85.5288 98.8669 85.7174 99.3222 85.7174 99.7969ZM101.867 98.0069C101.511 98.0049 101.161 98.1091 100.864 98.3061C100.566 98.5031 100.334 98.7841 100.196 99.1134C100.059 99.4427 100.022 99.8055 100.092 100.156C100.161 100.506 100.332 100.827 100.585 101.08C100.837 101.332 101.159 101.504 101.509 101.573C101.859 101.642 102.222 101.605 102.551 101.468C102.88 101.33 103.161 101.098 103.358 100.801C103.555 100.503 103.659 100.154 103.657 99.7969C103.657 99.3222 103.469 98.8669 103.133 98.5312C102.797 98.1955 102.342 98.0069 101.867 98.0069ZM110.757 85.0769C110.296 85.0925 109.858 85.2868 109.537 85.619C109.216 85.9511 109.037 86.395 109.037 86.8569C109.037 87.3343 109.227 87.7921 109.565 88.1297C109.902 88.4672 110.36 88.6569 110.837 88.6569C110.907 88.6667 110.978 88.6667 111.047 88.6569C111.204 87.4565 111.106 86.2364 110.757 85.0769ZM92.8974 111.347C92.541 111.345 92.192 111.449 91.8947 111.645C91.5973 111.842 91.3651 112.122 91.2273 112.451C91.0895 112.78 91.0525 113.142 91.1208 113.492C91.1891 113.842 91.3597 114.163 91.6111 114.416C91.8624 114.669 92.1831 114.841 92.5325 114.912C92.882 114.982 93.2444 114.947 93.5739 114.811C93.9034 114.675 94.1851 114.444 94.3833 114.148C94.5816 113.852 94.6874 113.503 94.6874 113.147C94.6874 112.671 94.4991 112.215 94.1637 111.878C93.8283 111.54 93.3731 111.35 92.8974 111.347Z" fill="white"/>
<path d="M93.3472 124.857C91.7472 120.527 90.0873 116.217 88.2273 111.987C87.3073 109.88 86.3506 107.78 85.3573 105.687C84.3573 103.607 83.1672 101.627 82.2072 99.5371C82.1572 99.4171 81.9772 99.5371 82.0372 99.6271C83.0972 101.627 83.8972 103.857 84.8472 105.957C85.7972 108.057 86.7472 110.157 87.6772 112.267C89.5372 116.477 91.4073 120.697 93.1673 124.947C93.2173 125.067 93.3872 124.977 93.3472 124.857Z" fill="#263238"/>
<path opacity="0.1" d="M109.287 96.027C106.177 105.177 91.9274 129.027 91.9274 129.027L82.0574 107.227L109.517 83.427C111.637 84.847 111.717 88.907 109.287 96.027Z" fill="black"/>
<path d="M76.6272 179.967L81.4372 147.357C81.4372 147.357 71.5872 135.087 77.1572 123.067C79.9672 116.967 95.3972 94.1669 104.907 85.5569C116.107 75.4369 128.517 82.5569 133.627 88.1969C143.867 99.5669 155.627 127.527 163.987 179.967H76.6272Z" fill="#FFC4C0"/>
<path d="M75.4573 170.947L81.4573 147.357C81.4573 147.357 71.6073 135.087 77.1773 123.067C79.9873 116.967 95.4173 94.167 104.927 85.557C116.127 75.437 129.827 82.027 134.997 87.657C144.177 97.657 155.687 118.507 163.997 170.947H75.4573Z" fill="#33A66A"/>
<path d="M103.657 99.7969C103.659 100.154 103.555 100.503 103.358 100.801C103.161 101.098 102.88 101.33 102.551 101.468C102.222 101.605 101.859 101.642 101.509 101.573C101.159 101.504 100.837 101.332 100.585 101.08C100.332 100.827 100.161 100.506 100.092 100.156C100.022 99.8055 100.059 99.4428 100.196 99.1135C100.334 98.7841 100.566 98.5031 100.864 98.3061C101.161 98.1091 101.511 98.0049 101.867 98.0069C102.342 98.0069 102.797 98.1955 103.133 98.5312C103.469 98.8669 103.657 99.3222 103.657 99.7969ZM119.797 98.0069C119.441 98.0069 119.093 98.1128 118.796 98.311C118.5 98.5092 118.269 98.7909 118.134 99.1204C117.998 99.4499 117.963 99.8124 118.033 100.162C118.103 100.511 118.275 100.832 118.528 101.083C118.781 101.335 119.103 101.505 119.452 101.574C119.802 101.642 120.165 101.605 120.493 101.467C120.822 101.329 121.102 101.097 121.299 100.8C121.496 100.502 121.599 100.153 121.597 99.7969C121.597 99.561 121.551 99.3274 121.46 99.1096C121.37 98.8918 121.237 98.694 121.07 98.5277C120.902 98.3613 120.704 98.2297 120.486 98.1403C120.267 98.0509 120.033 98.0056 119.797 98.0069ZM137.737 98.0069C137.381 98.0069 137.033 98.1128 136.736 98.311C136.44 98.5092 136.209 98.7909 136.074 99.1204C135.938 99.4499 135.903 99.8124 135.973 100.162C136.043 100.511 136.215 100.832 136.468 101.083C136.721 101.335 137.043 101.505 137.392 101.574C137.742 101.642 138.105 101.605 138.433 101.467C138.762 101.329 139.042 101.097 139.239 100.8C139.436 100.502 139.539 100.153 139.537 99.7969C139.537 99.561 139.491 99.3274 139.4 99.1096C139.31 98.8918 139.177 98.694 139.01 98.5277C138.842 98.3613 138.644 98.2297 138.426 98.1403C138.207 98.0509 137.973 98.0056 137.737 98.0069ZM110.837 85.0669C110.481 85.0649 110.131 85.1691 109.834 85.3661C109.536 85.5631 109.304 85.8441 109.166 86.1735C109.029 86.5028 108.992 86.8655 109.062 87.2156C109.131 87.5657 109.302 87.8874 109.555 88.1397C109.807 88.392 110.129 88.5637 110.479 88.6328C110.829 88.7019 111.192 88.6654 111.521 88.528C111.85 88.3905 112.131 88.1582 112.328 87.8607C112.525 87.5632 112.629 87.2138 112.627 86.8569C112.627 86.3822 112.439 85.9269 112.103 85.5912C111.767 85.2555 111.312 85.0669 110.837 85.0669ZM128.767 85.0669C128.411 85.0669 128.063 85.1728 127.766 85.371C127.47 85.5692 127.239 85.8509 127.104 86.1804C126.968 86.5099 126.933 86.8723 127.003 87.2218C127.073 87.5712 127.245 87.8919 127.498 88.1433C127.751 88.3946 128.073 88.5652 128.422 88.6336C128.772 88.7019 129.135 88.6648 129.463 88.527C129.792 88.3892 130.072 88.157 130.269 87.8597C130.466 87.5623 130.569 87.2134 130.567 86.8569C130.567 86.621 130.521 86.3874 130.43 86.1696C130.34 85.9518 130.207 85.754 130.04 85.5877C129.872 85.4213 129.674 85.2897 129.456 85.2003C129.237 85.1109 129.003 85.0656 128.767 85.0669ZM83.9274 124.297C83.5706 124.295 83.2212 124.399 82.9237 124.596C82.6261 124.793 82.3939 125.074 82.2564 125.403C82.1189 125.733 82.0824 126.096 82.1516 126.446C82.2207 126.796 82.3923 127.117 82.6447 127.37C82.897 127.622 83.2186 127.794 83.5687 127.863C83.9188 127.932 84.2816 127.895 84.6109 127.758C84.9402 127.62 85.2212 127.388 85.4182 127.091C85.6153 126.793 85.7194 126.444 85.7174 126.087C85.7174 125.612 85.5289 125.157 85.1932 124.821C84.8575 124.486 84.4022 124.297 83.9274 124.297ZM101.867 124.297C101.511 124.295 101.161 124.399 100.864 124.596C100.566 124.793 100.334 125.074 100.196 125.403C100.059 125.733 100.022 126.096 100.092 126.446C100.161 126.796 100.332 127.117 100.585 127.37C100.837 127.622 101.159 127.794 101.509 127.863C101.859 127.932 102.222 127.895 102.551 127.758C102.88 127.62 103.161 127.388 103.358 127.091C103.555 126.793 103.659 126.444 103.657 126.087C103.657 125.612 103.469 125.157 103.133 124.821C102.797 124.486 102.342 124.297 101.867 124.297ZM119.797 124.297C119.441 124.297 119.093 124.403 118.796 124.601C118.5 124.799 118.269 125.081 118.134 125.41C117.998 125.74 117.963 126.102 118.033 126.452C118.103 126.801 118.275 127.122 118.528 127.373C118.781 127.625 119.103 127.795 119.452 127.864C119.802 127.932 120.165 127.895 120.493 127.757C120.822 127.619 121.102 127.387 121.299 127.09C121.496 126.792 121.599 126.443 121.597 126.087C121.597 125.851 121.551 125.617 121.46 125.4C121.37 125.182 121.237 124.984 121.07 124.818C120.902 124.651 120.704 124.52 120.486 124.43C120.267 124.341 120.033 124.296 119.797 124.297ZM137.737 124.297C137.381 124.297 137.033 124.403 136.736 124.601C136.44 124.799 136.209 125.081 136.074 125.41C135.938 125.74 135.903 126.102 135.973 126.452C136.043 126.801 136.215 127.122 136.468 127.373C136.721 127.625 137.043 127.795 137.392 127.864C137.742 127.932 138.105 127.895 138.433 127.757C138.762 127.619 139.042 127.387 139.239 127.09C139.436 126.792 139.539 126.443 139.537 126.087C139.537 125.851 139.491 125.617 139.4 125.4C139.31 125.182 139.177 124.984 139.01 124.818C138.842 124.651 138.644 124.52 138.426 124.43C138.207 124.341 137.973 124.296 137.737 124.297ZM153.987 125.517C153.919 125.699 153.885 125.892 153.887 126.087C153.887 126.359 153.949 126.628 154.069 126.872C154.188 127.117 154.362 127.33 154.577 127.497C154.387 126.827 154.187 126.167 153.987 125.517ZM92.8974 111.347C92.541 111.345 92.192 111.449 91.8947 111.645C91.5974 111.842 91.3651 112.122 91.2273 112.451C91.0896 112.78 91.0525 113.142 91.1208 113.492C91.1891 113.842 91.3598 114.163 91.6111 114.416C91.8624 114.669 92.1831 114.841 92.5326 114.912C92.882 114.982 93.2444 114.947 93.5739 114.811C93.9034 114.675 94.1851 114.444 94.3834 114.148C94.5816 113.852 94.6874 113.503 94.6874 113.147C94.6875 112.671 94.4992 112.215 94.1638 111.878C93.8284 111.54 93.3731 111.35 92.8974 111.347ZM110.837 111.347C110.481 111.345 110.132 111.449 109.835 111.645C109.537 111.842 109.305 112.122 109.167 112.451C109.03 112.78 108.992 113.142 109.061 113.492C109.129 113.842 109.3 114.163 109.551 114.416C109.802 114.669 110.123 114.841 110.473 114.912C110.822 114.982 111.184 114.947 111.514 114.811C111.843 114.675 112.125 114.444 112.323 114.148C112.522 113.852 112.627 113.503 112.627 113.147C112.627 112.671 112.439 112.215 112.104 111.878C111.768 111.54 111.313 111.35 110.837 111.347ZM128.767 111.347C128.411 111.347 128.063 111.452 127.767 111.65C127.471 111.848 127.241 112.129 127.104 112.458C126.968 112.787 126.933 113.149 127.002 113.498C127.071 113.847 127.243 114.168 127.495 114.42C127.746 114.671 128.067 114.843 128.416 114.912C128.765 114.982 129.127 114.946 129.456 114.81C129.785 114.674 130.066 114.443 130.264 114.147C130.462 113.851 130.567 113.503 130.567 113.147C130.567 112.911 130.521 112.676 130.43 112.458C130.34 112.24 130.207 112.041 130.04 111.874C129.873 111.707 129.675 111.574 129.456 111.484C129.238 111.393 129.004 111.347 128.767 111.347ZM146.707 111.347C146.351 111.347 146.003 111.452 145.707 111.65C145.411 111.848 145.181 112.129 145.044 112.458C144.908 112.787 144.873 113.149 144.942 113.498C145.011 113.847 145.183 114.168 145.435 114.42C145.686 114.671 146.007 114.843 146.356 114.912C146.705 114.982 147.067 114.946 147.396 114.81C147.725 114.674 148.006 114.443 148.204 114.147C148.402 113.851 148.507 113.503 148.507 113.147C148.507 112.911 148.461 112.676 148.37 112.458C148.28 112.24 148.147 112.041 147.98 111.874C147.813 111.707 147.615 111.574 147.396 111.484C147.178 111.393 146.944 111.347 146.707 111.347ZM83.9274 150.577C83.571 150.575 83.222 150.679 82.9247 150.875C82.6274 151.072 82.3951 151.352 82.2573 151.681C82.1196 152.01 82.0825 152.372 82.1508 152.722C82.2191 153.072 82.3898 153.393 82.6411 153.646C82.8924 153.899 83.2131 154.071 83.5626 154.142C83.912 154.212 84.2744 154.177 84.6039 154.041C84.9334 153.905 85.2151 153.674 85.4134 153.378C85.6116 153.082 85.7174 152.733 85.7174 152.377C85.7174 151.901 85.5292 151.445 85.1938 151.108C84.8584 150.77 84.4031 150.58 83.9274 150.577ZM101.867 150.577C101.511 150.575 101.162 150.679 100.865 150.875C100.567 151.072 100.335 151.352 100.197 151.681C100.06 152.01 100.022 152.372 100.091 152.722C100.159 153.072 100.33 153.393 100.581 153.646C100.832 153.899 101.153 154.071 101.503 154.142C101.852 154.212 102.214 154.177 102.544 154.041C102.873 153.905 103.155 153.674 103.353 153.378C103.552 153.082 103.657 152.733 103.657 152.377C103.657 151.901 103.469 151.445 103.134 151.108C102.798 150.77 102.343 150.58 101.867 150.577ZM119.797 150.577C119.441 150.577 119.093 150.682 118.797 150.88C118.501 151.078 118.271 151.359 118.134 151.688C117.998 152.017 117.963 152.379 118.032 152.728C118.101 153.077 118.273 153.398 118.525 153.65C118.776 153.901 119.097 154.073 119.446 154.142C119.795 154.212 120.157 154.176 120.486 154.04C120.815 153.904 121.096 153.673 121.294 153.377C121.492 153.081 121.597 152.733 121.597 152.377C121.597 151.9 121.408 151.442 121.07 151.104C120.733 150.767 120.275 150.577 119.797 150.577ZM137.737 150.577C137.381 150.577 137.033 150.682 136.737 150.88C136.441 151.078 136.211 151.359 136.074 151.688C135.938 152.017 135.903 152.379 135.972 152.728C136.041 153.077 136.213 153.398 136.465 153.65C136.716 153.901 137.037 154.073 137.386 154.142C137.735 154.212 138.097 154.176 138.426 154.04C138.755 153.904 139.036 153.673 139.234 153.377C139.432 153.081 139.537 152.733 139.537 152.377C139.537 152.141 139.491 151.906 139.4 151.688C139.31 151.47 139.177 151.271 139.01 151.104C138.843 150.937 138.645 150.804 138.426 150.714C138.208 150.623 137.974 150.577 137.737 150.577ZM155.677 150.577C155.321 150.577 154.973 150.682 154.677 150.88C154.381 151.078 154.151 151.359 154.014 151.688C153.878 152.017 153.843 152.379 153.912 152.728C153.981 153.077 154.153 153.398 154.405 153.65C154.656 153.901 154.977 154.073 155.326 154.142C155.675 154.212 156.037 154.176 156.366 154.04C156.695 153.904 156.976 153.673 157.174 153.377C157.372 153.081 157.477 152.733 157.477 152.377C157.477 151.9 157.288 151.442 156.95 151.104C156.613 150.767 156.155 150.577 155.677 150.577ZM92.8974 137.637C92.541 137.635 92.192 137.739 91.8947 137.935C91.5974 138.132 91.3651 138.412 91.2273 138.741C91.0896 139.07 91.0525 139.432 91.1208 139.782C91.1891 140.132 91.3598 140.453 91.6111 140.706C91.8624 140.959 92.1831 141.131 92.5326 141.202C92.882 141.272 93.2444 141.237 93.5739 141.101C93.9034 140.965 94.1851 140.734 94.3834 140.438C94.5816 140.142 94.6874 139.793 94.6874 139.437C94.6875 138.961 94.4992 138.505 94.1638 138.168C93.8284 137.83 93.3731 137.64 92.8974 137.637ZM110.837 137.637C110.481 137.635 110.132 137.739 109.835 137.935C109.537 138.132 109.305 138.412 109.167 138.741C109.03 139.07 108.992 139.432 109.061 139.782C109.129 140.132 109.3 140.453 109.551 140.706C109.802 140.959 110.123 141.131 110.473 141.202C110.822 141.272 111.184 141.237 111.514 141.101C111.843 140.965 112.125 140.734 112.323 140.438C112.522 140.142 112.627 139.793 112.627 139.437C112.627 138.961 112.439 138.505 112.104 138.168C111.768 137.83 111.313 137.64 110.837 137.637ZM128.767 137.637C128.411 137.637 128.063 137.742 127.767 137.94C127.471 138.138 127.241 138.419 127.104 138.748C126.968 139.077 126.933 139.439 127.002 139.788C127.071 140.137 127.243 140.458 127.495 140.71C127.746 140.961 128.067 141.133 128.416 141.202C128.765 141.272 129.127 141.236 129.456 141.1C129.785 140.964 130.066 140.733 130.264 140.437C130.462 140.141 130.567 139.793 130.567 139.437C130.567 139.201 130.521 138.966 130.43 138.748C130.34 138.53 130.207 138.331 130.04 138.164C129.873 137.997 129.675 137.864 129.456 137.774C129.238 137.683 129.004 137.637 128.767 137.637ZM146.707 137.637C146.351 137.637 146.003 137.742 145.707 137.94C145.411 138.138 145.181 138.419 145.044 138.748C144.908 139.077 144.873 139.439 144.942 139.788C145.011 140.137 145.183 140.458 145.435 140.71C145.686 140.961 146.007 141.133 146.356 141.202C146.705 141.272 147.067 141.236 147.396 141.1C147.725 140.964 148.006 140.733 148.204 140.437C148.402 140.141 148.507 139.793 148.507 139.437C148.507 138.96 148.318 138.502 147.98 138.164C147.643 137.827 147.185 137.637 146.707 137.637ZM92.8974 163.927C92.541 163.925 92.192 164.029 91.8947 164.225C91.5974 164.422 91.3651 164.702 91.2273 165.031C91.0896 165.36 91.0525 165.722 91.1208 166.072C91.1891 166.422 91.3598 166.743 91.6111 166.996C91.8624 167.249 92.1831 167.421 92.5326 167.492C92.882 167.562 93.2444 167.527 93.5739 167.391C93.9034 167.255 94.1851 167.024 94.3834 166.728C94.5816 166.432 94.6874 166.083 94.6874 165.727C94.6888 165.491 94.6434 165.257 94.5541 165.039C94.4647 164.821 94.3331 164.622 94.1667 164.455C94.0004 164.287 93.8026 164.155 93.5848 164.064C93.3669 163.974 93.1333 163.927 92.8974 163.927ZM110.837 163.927C110.481 163.925 110.132 164.029 109.835 164.225C109.537 164.422 109.305 164.702 109.167 165.031C109.03 165.36 108.992 165.722 109.061 166.072C109.129 166.422 109.3 166.743 109.551 166.996C109.802 167.249 110.123 167.421 110.473 167.492C110.822 167.562 111.184 167.527 111.514 167.391C111.843 167.255 112.125 167.024 112.323 166.728C112.522 166.432 112.627 166.083 112.627 165.727C112.629 165.491 112.583 165.257 112.494 165.039C112.405 164.821 112.273 164.622 112.107 164.455C111.94 164.287 111.743 164.155 111.525 164.064C111.307 163.974 111.073 163.927 110.837 163.927ZM128.767 163.927C128.411 163.927 128.063 164.033 127.767 164.23C127.471 164.428 127.241 164.709 127.104 165.038C126.968 165.367 126.933 165.729 127.002 166.078C127.071 166.427 127.243 166.748 127.495 167C127.746 167.251 128.067 167.423 128.416 167.492C128.765 167.562 129.127 167.526 129.456 167.39C129.785 167.254 130.066 167.023 130.264 166.727C130.462 166.431 130.567 166.083 130.567 165.727C130.569 165.49 130.523 165.256 130.433 165.037C130.343 164.818 130.211 164.619 130.043 164.451C129.876 164.284 129.677 164.151 129.458 164.061C129.239 163.971 129.004 163.926 128.767 163.927ZM146.707 163.927C146.351 163.927 146.003 164.033 145.707 164.23C145.411 164.428 145.181 164.709 145.044 165.038C144.908 165.367 144.873 165.729 144.942 166.078C145.011 166.427 145.183 166.748 145.435 167C145.686 167.251 146.007 167.423 146.356 167.492C146.705 167.562 147.067 167.526 147.396 167.39C147.725 167.254 148.006 167.023 148.204 166.727C148.402 166.431 148.507 166.083 148.507 165.727C148.509 165.49 148.463 165.256 148.373 165.037C148.283 164.818 148.151 164.619 147.983 164.451C147.816 164.284 147.617 164.151 147.398 164.061C147.179 163.971 146.944 163.926 146.707 163.927ZM163.007 165.007C162.906 165.233 162.855 165.479 162.857 165.727C162.856 166.177 163.028 166.61 163.337 166.937L163.007 165.007Z" fill="white"/>
<path d="M110.937 144.027C106.812 144.099 102.698 144.473 98.6273 145.147C96.6273 145.517 94.6273 145.967 92.6273 146.467C91.6273 146.717 90.6273 146.927 89.6273 147.147C88.5886 147.392 87.5245 147.512 86.4573 147.507C86.3573 147.507 86.3573 147.647 86.4573 147.657C87.4529 147.774 88.4549 147.828 89.4573 147.817C90.4376 147.774 91.4134 147.66 92.3773 147.477C94.3773 147.127 96.4573 146.687 98.5073 146.317C102.637 145.567 106.767 144.817 110.947 144.377C111.157 144.347 111.127 144.027 110.937 144.027Z" fill="#263238"/>
<path d="M120.807 148.397C117.456 147.798 114.074 147.387 110.677 147.167C108.967 147.067 107.277 147.067 105.577 147.107C104.757 147.107 103.947 147.157 103.137 147.207C102.327 147.257 101.357 147.417 100.467 147.457C100.367 147.457 100.357 147.607 100.467 147.607C101.307 147.607 102.157 147.727 102.997 147.767L105.537 147.887C107.237 147.967 108.927 148.067 110.627 148.127C114.027 148.257 117.407 148.427 120.797 148.677C120.834 148.678 120.87 148.665 120.898 148.64C120.925 148.614 120.941 148.579 120.942 148.542C120.944 148.505 120.93 148.469 120.905 148.442C120.879 148.414 120.844 148.398 120.807 148.397Z" fill="#263238"/>
<path d="M126.787 84.677C126.407 86.347 117.787 96.427 110.327 94.787C105.047 93.637 108.397 83.147 108.397 83.147L105.007 68.147L123.867 56.147C123.867 56.147 126.947 83.967 126.787 84.677Z" fill="#FFC4C0"/>
<path d="M124.937 65.8869C123.422 69.624 121.156 73.0099 118.278 75.8345C115.4 78.6591 111.972 80.8622 108.207 82.3069L104.997 68.1069L123.857 56.1069C123.857 56.1069 124.347 60.5169 124.937 65.8869Z" fill="#263238"/>
<path d="M85.8972 44.2269C81.6572 69.0669 96.0572 74.4169 101.457 75.3269C106.327 76.1569 123.027 78.3269 129.817 54.0169C136.607 29.7069 126.367 19.8569 115.327 17.3869C104.287 14.9169 90.1372 19.2869 85.8972 44.2269Z" fill="#FFC4C0"/>
<path d="M92.6974 41.6069C93.2374 41.8369 93.7874 41.9669 94.3474 42.1469C94.9031 42.4276 95.5375 42.5122 96.1474 42.3869C96.3321 42.3128 96.4866 42.179 96.5863 42.0068C96.686 41.8346 96.7251 41.6339 96.6974 41.4369C96.5866 41.056 96.3762 40.7116 96.0879 40.4391C95.7996 40.1667 95.4439 39.976 95.0574 39.8869C94.3009 39.5966 93.4638 39.5966 92.7074 39.8869C92.5576 39.9745 92.4333 40.0997 92.3466 40.25C92.2598 40.4002 92.2137 40.5705 92.2127 40.744C92.2117 40.9175 92.2558 41.0883 92.3408 41.2396C92.4258 41.3909 92.5487 41.5175 92.6974 41.6069Z" fill="#263238"/>
<path d="M110.587 42.5169C110.007 42.3869 109.487 42.1669 108.927 41.9869C108.316 41.8798 107.757 41.574 107.337 41.1169C107.233 40.9484 107.188 40.7503 107.207 40.5533C107.227 40.3562 107.312 40.1712 107.447 40.0269C107.761 39.7826 108.134 39.6268 108.528 39.5757C108.922 39.5247 109.322 39.5804 109.687 39.7369C110.478 39.9341 111.166 40.419 111.617 41.0969C111.694 41.259 111.726 41.4388 111.709 41.6174C111.693 41.796 111.628 41.9669 111.523 42.1121C111.418 42.2573 111.275 42.3715 111.111 42.4427C110.946 42.5139 110.765 42.5396 110.587 42.5169Z" fill="#263238"/>
<path d="M106.697 47.957C106.697 47.897 106.827 48.057 106.817 48.127C106.547 49.827 106.517 51.8171 107.997 52.5771C107.997 52.5771 107.997 52.687 107.997 52.677C106.117 52.167 106.177 49.527 106.697 47.957Z" fill="#263238"/>
<path d="M108.447 46.3669C111.217 46.5069 110.737 52.0369 108.177 51.9069C105.617 51.7769 106.127 46.2269 108.447 46.3669Z" fill="#263238"/>
<path d="M109.507 46.7569C109.967 47.1069 110.397 47.7069 110.967 47.8169C111.537 47.9269 112.197 47.4069 112.687 46.8869C112.737 46.8269 112.777 46.8869 112.777 46.9569C112.697 48.0169 112.197 49.0669 111.047 49.1269C109.897 49.1869 109.337 48.1269 109.167 47.1269C109.127 46.8869 109.327 46.6169 109.507 46.7569Z" fill="#263238"/>
<path d="M105.207 61.897C104.887 62.377 104.597 63.0071 104.007 63.1871C103.381 63.322 102.734 63.322 102.107 63.1871C102.095 63.183 102.081 63.1835 102.068 63.1883C102.056 63.193 102.045 63.2019 102.038 63.2134C102.031 63.225 102.028 63.2385 102.03 63.2519C102.032 63.2652 102.038 63.2776 102.047 63.287C102.359 63.5658 102.74 63.7549 103.15 63.8341C103.561 63.9134 103.985 63.8798 104.377 63.737C104.701 63.575 104.969 63.32 105.148 63.0047C105.326 62.6894 105.406 62.3281 105.377 61.967C105.387 61.837 105.257 61.827 105.207 61.897Z" fill="#263238"/>
<path d="M97.4973 54.887C97.4973 54.887 96.8973 57.407 96.7773 58.607C96.7773 58.727 97.0472 58.807 97.4572 58.867C98.4739 59.1569 99.5506 59.1619 100.57 58.8815C101.589 58.6011 102.512 58.046 103.237 57.277C103.327 57.167 103.237 57.0269 103.067 57.0969C101.428 58.0003 99.5415 58.351 97.6873 58.0969C97.6373 57.7569 98.8673 53.807 98.6873 53.777C97.7426 53.7697 96.8011 53.8874 95.8873 54.1269C96.9973 48.8369 98.9473 43.7769 99.9773 38.4869C99.9805 38.4495 99.9711 38.412 99.9508 38.3804C99.9304 38.3488 99.9002 38.3249 99.8647 38.3123C99.8293 38.2997 99.7907 38.2992 99.755 38.3109C99.7192 38.3226 99.6884 38.3458 99.6673 38.3769C97.2473 43.5469 95.8373 49.6069 94.5573 55.0369C94.4273 55.6969 96.9973 55.047 97.4973 54.887Z" fill="#263238"/>
<path d="M98.3274 58.307C98.8508 59.2335 99.6053 60.0087 100.517 60.557C101.021 60.8444 101.601 60.9668 102.177 60.907C103.437 60.757 103.627 59.647 103.537 58.657C103.487 58.136 103.376 57.6226 103.207 57.127C101.746 58.0266 100.038 58.4397 98.3274 58.307Z" fill="#263238"/>
<path d="M91.2773 45.0969C91.7387 45.0587 92.2033 45.0856 92.6573 45.1769C93.1254 45.2692 93.5771 45.431 93.9973 45.6569C94.4359 45.8957 94.826 46.2146 95.1473 46.5969C95.4666 47.0087 95.6888 47.4873 95.7973 47.997L95.9973 48.9069L95.1273 48.557C94.5055 48.3028 93.8585 48.1151 93.1973 47.997C92.5326 47.8649 91.8455 47.8992 91.1973 48.0969C91.7618 47.5614 92.5091 47.261 93.2873 47.257C94.0622 47.2366 94.8336 47.3691 95.5573 47.647L94.8873 48.2069C94.6781 47.4625 94.2235 46.8106 93.5973 46.357C92.8787 45.8431 92.0995 45.4199 91.2773 45.0969Z" fill="#263238"/>
<path d="M92.8074 49.4369C93.535 49.4757 94.2646 49.4185 94.9774 49.2669C95.1474 49.2669 95.8074 48.9769 95.8174 48.8569C95.8422 48.4987 95.8186 48.1388 95.7474 47.7869C95.9138 48.131 96.009 48.5051 96.0274 48.8869C95.9249 49.0719 95.7816 49.2312 95.6083 49.3525C95.435 49.4738 95.2363 49.554 95.0274 49.5869C94.287 49.7316 93.5216 49.6799 92.8074 49.4369Z" fill="#263238"/>
<path d="M103.557 59.0868C103.173 58.9958 102.772 58.9958 102.387 59.0868C102.116 59.2297 101.885 59.4397 101.717 59.6968C101.542 59.6353 101.357 59.6089 101.171 59.6192C100.986 59.6295 100.805 59.6762 100.637 59.7568C100.127 60.0468 99.4373 62.4568 100.237 63.3168C100.449 63.4741 100.691 63.5862 100.948 63.6463C101.205 63.7065 101.471 63.7133 101.731 63.6665C101.99 63.6196 102.237 63.5201 102.457 63.3739C102.677 63.2278 102.864 63.0382 103.007 62.8168C103.237 62.3168 103.007 61.2568 103.387 60.0268C103.508 59.7285 103.566 59.4085 103.557 59.0868Z" fill="#FF9CBD"/>
<path d="M128.187 54.3269C124.087 54.2369 124.357 44.7668 124.357 44.7668C124.357 44.7668 116.097 43.9568 114.567 31.7668C114.443 35.3545 115.371 38.9001 117.237 41.9669C117.237 41.9669 102.467 39.7869 97.5574 26.9669C97.5574 26.9669 99.3774 33.4269 101.457 35.8669C101.457 35.8669 95.4574 33.5469 93.0374 28.2769C93.0374 28.2769 89.7674 35.0569 87.6074 36.8069C87.6074 36.8069 90.7874 11.3569 114.137 16.4669C114.137 16.4669 128.837 18.9469 132.967 31.1869C137.097 43.4269 128.187 54.3269 128.187 54.3269Z" fill="#263238"/>
<path d="M129.767 53.097C128.617 56.347 137.647 41.537 137.827 39.097C138.007 36.6569 134.567 24.507 125.047 18.527C117.047 13.527 106.457 15.397 104.607 15.747C102.534 16.1248 100.567 16.9432 98.8374 18.147C98.8374 18.147 112.747 15.637 123.887 20.147C129.257 22.397 134.057 40.887 129.767 53.097Z" fill="#33A66A"/>
<path d="M129.447 17.917C129.447 17.917 127.537 10.557 121.447 7.91699C121.447 7.91699 119.777 14.227 121.357 16.917C122.147 18.277 126.937 20.217 127.767 19.577C128.383 19.0829 128.946 18.5266 129.447 17.917Z" fill="#33A66A"/>
<path opacity="0.1" d="M129.447 17.9269C128.953 18.5392 128.401 19.1019 127.797 19.6069C127.759 19.6381 127.715 19.6619 127.667 19.6769H127.497C127.451 19.6823 127.404 19.6823 127.357 19.6769C126.397 19.6368 125.454 19.4021 124.587 18.9869C125.013 18.1088 125.518 17.2719 126.097 16.4869C126.759 15.8679 127.599 15.4726 128.497 15.3569C128.893 16.1824 129.211 17.0428 129.447 17.9269Z" fill="#050400"/>
<path d="M130.727 19.2271C130.727 19.2271 139.897 20.567 143.527 23.757C143.527 23.757 139.837 27.617 135.097 27.397C132.977 27.307 128.327 21.967 128.947 21.037C129.454 20.3542 130.053 19.745 130.727 19.2271Z" fill="#33A66A"/>
<path opacity="0.1" d="M132.797 19.6171C132.729 20.6483 132.364 21.6379 131.747 22.4671C131.299 22.937 130.757 23.3083 130.157 23.5571C129.267 22.4271 128.717 21.4171 128.957 21.0471C129.464 20.3703 130.059 19.7648 130.727 19.2471C130.727 19.2471 131.547 19.3571 132.797 19.6171Z" fill="#050400"/>
<path d="M131.057 21.517C130.637 21.9341 130.102 22.2173 129.521 22.3311C128.94 22.4449 128.338 22.384 127.791 22.1562C127.244 21.9285 126.777 21.5439 126.449 21.0511C126.12 20.5583 125.945 19.9793 125.945 19.387C125.945 18.7947 126.12 18.2156 126.449 17.7228C126.777 17.23 127.244 16.8455 127.791 16.6177C128.338 16.3899 128.94 16.3291 129.521 16.4428C130.102 16.5566 130.637 16.8399 131.057 17.257C131.339 17.5359 131.562 17.8677 131.714 18.2332C131.866 18.5988 131.945 18.9909 131.945 19.387C131.945 19.783 131.866 20.1751 131.714 20.5407C131.562 20.9063 131.339 21.2381 131.057 21.517Z" fill="#33A66A"/>
<path d="M125.557 53.5169C125.557 53.5169 131.697 46.117 135.107 48.367C138.517 50.617 133.437 61.6669 129.107 62.8769C128.565 63.0716 127.989 63.1546 127.414 63.1208C126.839 63.0869 126.276 62.937 125.76 62.6801C125.245 62.4232 124.786 62.0645 124.413 61.6257C124.039 61.1869 123.759 60.6771 123.587 60.1269L125.557 53.5169Z" fill="#FFC4C0"/>
<path d="M133.567 51.4971C133.583 51.4971 133.599 51.5034 133.61 51.5146C133.621 51.5259 133.627 51.5412 133.627 51.5571C133.627 51.573 133.621 51.5882 133.61 51.5995C133.599 51.6107 133.583 51.6171 133.567 51.6171C130.567 52.5571 128.767 55.1571 127.447 57.8871C128.447 56.8871 129.647 56.3771 131.017 57.5371C131.087 57.5971 131.017 57.7071 130.927 57.6871C130.42 57.47 129.858 57.4179 129.319 57.5382C128.781 57.6584 128.294 57.9449 127.927 58.3571C127.33 59.0414 126.803 59.7853 126.357 60.5771C126.197 60.8271 125.737 60.6471 125.857 60.3571C125.861 60.3339 125.861 60.3102 125.857 60.2871C126.187 56.5371 129.527 51.5471 133.567 51.4971Z" fill="#263238"/>
<path d="M141.437 96.2268C163.977 129.047 193.337 193.837 197.367 204.467C200.107 211.677 162.317 226.987 161.197 221.807C159.747 215.187 132.957 130.587 127.047 99.8068C123.777 82.8168 135.567 87.6868 141.437 96.2268Z" fill="#FFC4C0"/>
<path d="M146.117 170.947C147.474 173.788 148.375 176.825 148.787 179.947C147.418 177.111 146.516 174.071 146.117 170.947Z" fill="#263238"/>
<path d="M170.507 239.447C178.217 248.857 181.637 250.087 183.937 261.447C185.437 268.927 190.857 271.177 193.087 263.557C196.747 251.107 189.347 236.877 185.357 232.687L170.507 239.447Z" fill="#FFC4C0"/>
<path d="M157.697 207.227C157.697 207.227 159.897 224.347 167.127 235.227C172.127 242.717 184.807 257.817 211.657 256.337C218.027 255.987 226.857 250.977 216.247 247.767C208.707 245.487 203.247 246.327 199.097 244.197C199.097 244.197 209.567 236.487 208.967 230.127C208.448 224.558 207.529 219.034 206.217 213.597C205.167 213.613 204.118 213.693 203.077 213.837C203.077 213.837 201.957 207.947 194.697 202.417L157.697 207.227Z" fill="#FFC4C0"/>
<path d="M173.057 241.577C177.617 242.817 187.317 245.277 195.947 244.527C205.547 243.697 223.797 239.527 223.117 232.437C222.607 227.247 215.497 228.237 215.497 228.237C215.497 228.237 222.677 224.917 221.197 220.327C219.857 216.147 214.397 217.237 214.397 217.237C214.397 217.237 218.397 214.477 216.337 210.697C213.837 206.157 205.847 212.697 199.337 210.277C197.867 209.737 173.057 241.577 173.057 241.577Z" fill="#FFC4C0"/>
<path d="M193.367 234.537C197.837 234.997 208.277 233.437 215.367 228.417C215.527 228.307 215.527 228.117 215.367 228.197C208.315 231.165 200.927 233.263 193.367 234.447V234.537Z" fill="#263238"/>
<path d="M192.807 224.827C196.707 224.827 207.397 222.737 214.437 217.407C214.597 217.287 214.587 217.107 214.437 217.187C207.539 220.513 200.286 223.046 192.817 224.737C192.737 224.747 192.757 224.827 192.807 224.827Z" fill="#263238"/>
<path d="M160.957 121.627L129.297 120.137C129.297 120.137 126.217 104.517 125.737 95.627C125.097 83.857 129.317 80.867 139.397 91.207C146.147 98.127 160.957 121.627 160.957 121.627Z" fill="#33A66A"/>
<path d="M139.537 99.7969C139.539 100.153 139.435 100.502 139.239 100.8C139.042 101.097 138.762 101.329 138.433 101.467C138.104 101.605 137.742 101.642 137.392 101.574C137.042 101.505 136.721 101.335 136.468 101.083C136.215 100.832 136.043 100.511 135.973 100.162C135.902 99.8124 135.937 99.4499 136.073 99.1204C136.209 98.7909 136.44 98.5092 136.736 98.311C137.032 98.1128 137.381 98.0069 137.737 98.0069C137.973 98.0056 138.207 98.0509 138.425 98.1403C138.644 98.2297 138.842 98.3613 139.009 98.5277C139.177 98.694 139.309 98.8918 139.4 99.1096C139.491 99.3274 139.537 99.561 139.537 99.7969ZM128.767 85.0669C128.411 85.0669 128.062 85.1728 127.766 85.371C127.47 85.5692 127.239 85.8509 127.103 86.1804C126.967 86.5099 126.932 86.8723 127.003 87.2218C127.073 87.5712 127.245 87.8919 127.498 88.1433C127.751 88.3946 128.072 88.5652 128.422 88.6336C128.772 88.7019 129.134 88.6648 129.463 88.527C129.792 88.3892 130.072 88.157 130.269 87.8597C130.465 87.5623 130.569 87.2134 130.567 86.8569C130.567 86.621 130.521 86.3874 130.43 86.1696C130.339 85.9518 130.207 85.754 130.039 85.5877C129.872 85.4213 129.674 85.2897 129.455 85.2003C129.237 85.1109 129.003 85.0656 128.767 85.0669ZM128.767 111.347C128.41 111.344 128.06 111.452 127.767 111.657C127.967 112.807 128.147 113.897 128.327 114.887C128.47 114.927 128.619 114.947 128.767 114.947C129.245 114.947 129.702 114.757 130.04 114.42C130.378 114.082 130.567 113.624 130.567 113.147C130.567 112.67 130.378 112.212 130.04 111.874C129.702 111.537 129.245 111.347 128.767 111.347ZM146.707 111.347C146.351 111.347 146.003 111.452 145.707 111.65C145.411 111.848 145.181 112.129 145.044 112.458C144.908 112.787 144.872 113.149 144.942 113.498C145.011 113.847 145.183 114.168 145.434 114.42C145.686 114.671 146.007 114.843 146.356 114.912C146.705 114.982 147.067 114.946 147.396 114.81C147.725 114.674 148.006 114.443 148.204 114.147C148.402 113.851 148.507 113.503 148.507 113.147C148.507 112.911 148.461 112.676 148.37 112.458C148.28 112.24 148.147 112.041 147.98 111.874C147.813 111.707 147.614 111.574 147.396 111.484C147.178 111.393 146.944 111.347 146.707 111.347Z" fill="white"/>
<path d="M133.157 120.327C132.817 120.257 129.577 119.997 129.337 120.047C129.017 118.197 128.727 116.347 128.397 114.497C128.227 113.577 128.037 112.657 127.847 111.747C127.657 110.837 127.427 109.577 127.237 108.677C127.242 108.662 127.243 108.646 127.241 108.63C127.239 108.615 127.233 108.6 127.223 108.587C127.214 108.574 127.202 108.564 127.188 108.557C127.174 108.549 127.158 108.546 127.142 108.546C127.126 108.546 127.111 108.549 127.097 108.557C127.083 108.564 127.07 108.574 127.061 108.587C127.052 108.6 127.046 108.615 127.043 108.63C127.041 108.646 127.042 108.662 127.047 108.677C127.177 109.867 127.317 110.747 127.437 111.767C127.557 112.787 127.677 113.597 127.827 114.507C128.147 116.437 128.407 118.507 128.827 120.407C130.272 120.507 131.722 120.507 133.167 120.407C133.217 120.437 133.207 120.347 133.157 120.327Z" fill="#263238"/>
<path d="M157.887 118.477C153.287 117.937 148.707 117.477 144.087 117.207C141.787 117.077 139.477 116.977 137.177 116.917C134.877 116.857 132.557 117.027 130.257 116.917C130.242 116.912 130.226 116.911 130.211 116.913C130.195 116.916 130.18 116.922 130.168 116.931C130.155 116.94 130.144 116.952 130.137 116.967C130.13 116.981 130.126 116.996 130.126 117.012C130.126 117.028 130.13 117.043 130.137 117.058C130.144 117.072 130.155 117.084 130.168 117.093C130.18 117.102 130.195 117.108 130.211 117.111C130.226 117.113 130.242 117.112 130.257 117.107C132.557 117.107 134.877 117.377 137.177 117.467C139.477 117.557 141.787 117.687 144.087 117.807C148.687 118.057 153.287 118.297 157.887 118.647C158.057 118.677 158.057 118.487 157.887 118.477Z" fill="#263238"/>
<path d="M108.577 271.677C108.577 271.507 108.577 271.347 108.577 271.187C108.567 271.347 108.577 271.517 108.577 271.677Z" fill="#33A66A"/>
</svg>

