<svg width="42" height="42" viewBox="0 0 42 42" fill="none" xmlns="http://www.w3.org/2000/svg">
<path d="M10.9102 6.80859C10.4573 6.80859 10.0898 7.17609 10.0898 7.62891C10.0898 8.08172 10.4573 8.44922 10.9102 8.44922C11.363 8.44922 11.7305 8.08172 11.7305 7.62891C11.7305 7.17609 11.363 6.80859 10.9102 6.80859Z" fill="white"/>
<path d="M21 0C9.68133 0 0 9.66336 0 21C0 32.3212 9.66451 42 21 42C32.3187 42 42 32.3366 42 21C42 9.67879 32.3355 0 21 0ZM21 40.3594C10.5062 40.3594 1.64062 31.4938 1.64062 21C1.64062 10.5062 10.5062 1.64062 21 1.64062C31.4938 1.64062 40.3594 10.5062 40.3594 21C40.3594 31.4938 31.4938 40.3594 21 40.3594Z" fill="white"/>
<path d="M21 3.52734C18.3697 3.52734 15.5872 4.13438 13.366 5.19282C12.9571 5.38773 12.7834 5.87729 12.9783 6.28622C13.1732 6.69514 13.6626 6.86897 14.0717 6.6739C16.0801 5.71684 18.6054 5.16797 21 5.16797C29.5819 5.16797 36.832 12.4181 36.832 21C36.832 29.5819 29.5819 36.832 21 36.832C12.4181 36.832 5.16797 29.5819 5.16797 21C5.16797 17.0801 6.60606 13.2165 9.11359 10.3998C9.41489 10.0615 9.38479 9.54294 9.04641 9.24172C8.70795 8.94034 8.18959 8.97077 7.88829 9.30891C5.11678 12.422 3.52734 16.6832 3.52734 21C3.52734 30.4933 11.4928 38.4727 21 38.4727C30.4933 38.4727 38.4727 30.5072 38.4727 21C38.4727 11.5067 30.5072 3.52734 21 3.52734Z" fill="white"/>
<path d="M30.8438 16.8984H25.1016V11.1562C25.1016 10.7033 24.7342 10.3359 24.2812 10.3359H17.7188C17.2658 10.3359 16.8984 10.7033 16.8984 11.1562V16.8984H11.1562C10.7033 16.8984 10.3359 17.2658 10.3359 17.7188V24.2812C10.3359 24.7342 10.7033 25.1016 11.1562 25.1016H16.8984V30.8438C16.8984 31.2967 17.2658 31.6641 17.7188 31.6641H24.2812C24.7342 31.6641 25.1016 31.2967 25.1016 30.8438V25.1016H30.8438C31.2967 25.1016 31.6641 24.7342 31.6641 24.2812V17.7188C31.6641 17.2658 31.2967 16.8984 30.8438 16.8984ZM30.0234 23.4609H24.2812C23.8283 23.4609 23.4609 23.8283 23.4609 24.2812V30.0234H18.5391V24.2812C18.5391 23.8283 18.1717 23.4609 17.7188 23.4609H11.9766V18.5391H17.7188C18.1717 18.5391 18.5391 18.1717 18.5391 17.7188V11.9766H23.4609V17.7188C23.4609 18.1717 23.8283 18.5391 24.2812 18.5391H30.0234V23.4609Z" fill="white"/>
</svg>

