<svg width="16" height="19" viewBox="0 0 16 19" fill="none" xmlns="http://www.w3.org/2000/svg">
<path d="M13.8957 8.74286H2.9622C2.09957 8.74286 1.40027 9.46773 1.40027 10.3619V16.0286C1.40027 16.9227 2.09957 17.6476 2.9622 17.6476H13.8957C14.7583 17.6476 15.4576 16.9227 15.4576 16.0286V10.3619C15.4576 9.46773 14.7583 8.74286 13.8957 8.74286Z" stroke="#3EC5F0" stroke-linecap="round" stroke-linejoin="round"/>
<path d="M4.52414 8.74287V5.50477C4.52414 4.43128 4.93554 3.40175 5.66784 2.64267C6.40013 1.8836 7.39334 1.45715 8.42897 1.45715C9.46459 1.45715 10.4578 1.8836 11.1901 2.64267C11.9224 3.40175 12.3338 4.43128 12.3338 5.50477V8.74287" stroke="#3EC5F0" stroke-linecap="round" stroke-linejoin="round"/>
</svg>

