<svg width="208" height="118" viewBox="0 0 208 118" fill="none" xmlns="http://www.w3.org/2000/svg">
<path d="M131.801 37.8158C131.055 37.6254 130.331 36.9758 130.079 36.2715C129.817 35.5384 129.994 34.5021 130.48 33.9285C130.616 33.7682 131.17 33.2905 131.711 32.8669C133.246 31.6659 134.609 30.4203 135.794 29.1341C136.847 27.9914 136.874 27.9527 136.62 27.9286C136.097 27.8791 135.073 27.6007 134.466 27.3436C130.635 25.7186 127.964 21.3627 127.183 15.4661C126.993 14.0248 126.91 10.8984 127.03 9.64449C127.131 8.57768 127.297 8.15168 127.789 7.68869C128.317 7.19252 128.652 7.06801 129.455 7.06835C130.276 7.06869 130.694 7.23475 131.199 7.76138C131.81 8.39875 131.857 8.64149 131.852 11.1138C131.849 12.3337 131.874 13.5975 131.906 13.9222C132.268 17.5734 133.243 20.1358 134.896 21.7857C135.906 22.7946 136.436 23.0475 137.538 23.0486C138.231 23.0494 138.432 23.0133 138.855 22.8134C140.574 22.0016 141.835 20.0661 142.577 17.1015C143.134 14.8757 143.306 13.3894 143.307 10.7699C143.308 8.98323 143.32 8.85747 143.52 8.42776C143.961 7.48181 144.856 6.96365 145.918 7.03959C146.621 7.08992 146.98 7.24881 147.449 7.7174C148.091 8.35971 148.16 8.64257 148.194 10.789C148.259 14.8237 147.678 18.0094 146.203 21.698C144.782 25.2541 143.11 28.0368 140.534 31.1357C138.678 33.3668 134.771 36.9293 133.427 37.615C133.007 37.8291 132.23 37.9251 131.801 37.8158ZM157.293 29.0073C155.791 28.6728 154.675 28.1633 153.491 27.2707C151.587 25.836 150.404 23.8895 149.691 21.0149C149.476 20.1447 149.453 19.8868 149.453 18.3268C149.454 16.5321 149.562 15.7394 150.017 14.173C151.07 10.5529 153.837 7.86978 157.311 7.09906C158.43 6.85095 160.423 6.89982 161.471 7.20108C163.112 7.67256 164.893 8.80716 165.928 10.0401C167.254 11.6192 167.917 13.0535 168.504 15.6185C168.709 16.5111 168.737 16.836 168.737 18.3105C168.737 19.8761 168.719 20.0558 168.468 21.0189C168.082 22.4986 167.799 23.2811 167.327 24.1675C166.07 26.5301 164.131 28.1183 161.588 28.8691C160.478 29.1966 158.438 29.2622 157.293 29.0073ZM159.888 24.2678C161.251 24.0188 162.426 23.0857 163.095 21.7219C163.699 20.4891 163.788 20.0262 163.78 18.1452C163.774 16.6341 163.755 16.449 163.525 15.6965C162.845 13.4654 161.518 12.1148 159.712 11.8156C157.922 11.519 156.023 12.6215 155.125 14.4787C154.543 15.6802 154.357 16.6068 154.361 18.2814C154.364 19.4166 154.401 19.8262 154.555 20.3975C155.095 22.4115 156.475 23.8478 158.239 24.2314C158.939 24.3838 159.218 24.39 159.888 24.2678ZM178.501 29.1161C178.067 29.0585 177.095 28.7237 176.503 28.4279C173.633 26.9947 171.458 23.6083 170.516 19.1083C170.074 16.9982 169.973 15.8795 169.97 13.0595C169.969 11.218 170.003 10.2892 170.084 9.97166C170.44 8.57213 171.952 7.77977 173.297 8.28763C173.91 8.51891 174.547 9.16428 174.714 9.72319C174.786 9.96144 174.822 10.8824 174.822 12.4412C174.822 15.0766 174.913 16.2679 175.235 17.8864C175.993 21.6839 177.788 24.3025 179.636 24.3043C181.271 24.3059 182.86 22.1425 183.724 18.7376C184.144 17.0841 184.283 15.7475 184.327 12.9686C184.372 10.1147 184.404 9.90425 184.902 9.21652C185.468 8.43622 186.791 8.11971 187.734 8.53951C188.3 8.79152 188.856 9.38116 189.027 9.90876C189.353 10.9181 189.282 15.0505 188.894 17.6128C187.944 23.8862 185.157 28.0026 181.182 29.0046C180.539 29.1667 179.277 29.2192 178.501 29.1161ZM104.614 28.229C104.539 28.2114 104.171 28.1476 103.797 28.0874C99.392 27.379 95.6675 24.0001 94.5378 19.6872C93.63 16.2217 94.5629 12.7641 97.0787 10.27C99.3494 8.0188 102.595 6.81817 106.998 6.60019C107.685 6.5662 108.247 6.51271 108.247 6.48137C108.247 6.16036 107.929 3.99838 107.79 3.37437C107.576 2.41136 107.572 2.28062 107.747 1.69162C108.038 0.713896 108.979 0.00768548 110.003 8.18933e-05C110.976 -0.00717036 111.772 0.467543 112.203 1.31057C112.995 2.86287 113.535 9.61385 113.332 15.4207C113.179 19.8044 112.747 22.9599 111.962 25.4434C111.629 26.4949 111.531 26.6857 111.103 27.1121C110.422 27.7907 108.72 28.1913 106.34 28.2332C105.466 28.2487 104.689 28.2468 104.614 28.229ZM107.492 23.2518C107.632 23.1109 108.01 21.0688 108.194 19.4621C108.377 17.8626 108.518 15.1033 108.519 13.0821L108.52 11.4701H107.586C105.343 11.4701 103.099 11.9875 101.646 12.84C101.355 13.0106 100.828 13.4363 100.475 13.786C99.404 14.8459 99.0072 15.8948 99.1008 17.4187C99.2825 20.3761 101.79 22.9248 104.947 23.3613C105.738 23.4707 107.344 23.4016 107.492 23.2518ZM192.731 27.8259C192.168 27.6316 191.615 27.1325 191.345 26.5766C191.066 25.9998 190.961 24.3621 190.952 20.4611C190.944 16.8748 191.015 15.9485 191.446 14.013C192.085 11.1409 193.4 9.21828 195.394 8.23967C196.57 7.66294 197.083 7.54687 198.679 7.49764C200.153 7.45214 201.027 7.5529 202.865 7.98034C203.935 8.22924 204.361 8.42495 204.762 8.85119C205.166 9.28054 205.353 9.69641 205.405 10.2815C205.491 11.2395 205.068 12.072 204.232 12.5886C203.62 12.9674 202.998 12.9977 201.752 12.7094C199.745 12.2449 198.332 12.1964 197.606 12.567C196.71 13.0238 196.174 14.4108 195.894 16.9942C195.762 18.2135 195.76 22.2665 195.891 24.2142C195.981 25.553 195.975 25.8045 195.847 26.2445C195.65 26.9226 195.052 27.5638 194.382 27.8144C193.777 28.0407 193.361 28.0436 192.731 27.8259ZM50.6061 27.7183C50.0831 27.5668 49.4662 27.069 49.1916 26.5771C48.9713 26.1823 48.9033 25.8903 48.7581 24.7153C48.1243 19.5868 48.0344 12.337 48.5352 6.74758C48.8652 3.06462 49.3073 1.51574 50.2291 0.812737C50.8797 0.316542 50.7496 0.325612 57.7492 0.288537C64.1827 0.254452 64.246 0.255894 64.6509 0.444114C65.6099 0.88987 66.1055 1.64521 66.1021 2.65593C66.0988 3.62902 65.6517 4.37191 64.798 4.82218L64.333 5.06745L59.0215 5.093C56.1001 5.10703 53.6788 5.14962 53.6408 5.18761C53.5141 5.31426 53.1161 10.0254 53.1161 11.398V11.6691L56.5447 11.6377L59.9734 11.6063L60.4537 11.8233C62.3535 12.6817 62.3651 15.3484 60.473 16.2293C60.0841 16.4104 59.8958 16.4209 56.5902 16.4464L53.1161 16.4731L53.1169 17.3545C53.1182 18.6355 53.3603 22.2707 53.558 23.9791C53.7432 25.5791 53.7112 26.069 53.3873 26.5932C52.8061 27.5334 51.6217 28.0126 50.6061 27.7183ZM67.9568 27.7362C67.157 27.5312 66.3905 26.8179 66.1967 26.0982C66.1358 25.872 66.095 22.7161 66.0807 17.1338L66.0587 8.51852L66.3405 8.01902C66.8133 7.1808 67.5372 6.74923 68.4721 6.74809C69.4141 6.74683 70.1988 7.23748 70.6169 8.08899L70.8725 8.60933L70.8974 17.1736C70.9143 22.9559 70.8913 25.853 70.8268 26.0925C70.5274 27.2043 69.091 28.027 67.9568 27.7362ZM75.3142 27.6353C74.7533 27.4128 74.2257 26.9123 73.9832 26.3728C73.6128 25.5488 73.5606 22.0803 73.8764 19.2804C74.1759 16.6256 74.8595 14.1467 75.8084 12.2745C77.1997 9.52953 79.0918 7.7546 81.4082 7.02125C82.2869 6.74311 83.8946 6.67353 84.7688 6.87582C89.9962 8.0854 93.1593 14.6359 92.9733 23.8667C92.9401 25.5149 92.9177 25.725 92.7309 26.1371C92.3125 27.06 91.4977 27.5794 90.4908 27.5648C89.8323 27.5553 89.3825 27.3783 88.8928 26.9359C88.1801 26.2921 88.1325 26.1128 88.1149 24.0029C88.0893 20.9207 87.9657 19.434 87.5903 17.6876C86.8158 14.0851 85.0873 11.6087 83.3548 11.6193C81.7192 11.6293 79.9911 13.9141 79.1847 17.1326C78.6952 19.0866 78.6063 19.9785 78.5901 23.0954C78.5762 25.7655 78.5629 25.984 78.3897 26.3648C77.8525 27.5457 76.4984 28.1052 75.3142 27.6353Z" fill="#5F9CAF"/>
<path d="M125.447 117.957C113.8 117.353 103.357 114.852 92.4776 110.061C90.4856 109.183 86.3891 107.128 84.3033 105.96C80.9686 104.091 76.8742 101.505 76.2168 100.852C74.5753 99.2213 74.6553 96.4752 76.3892 94.9349C77.2755 94.1474 78.5855 93.7551 79.6819 93.9486C80.4871 94.0908 81.1239 94.4089 82.8047 95.5089C89.5118 99.8982 97.4045 103.675 104.648 105.962C111.119 108.006 116.726 109.092 123.812 109.678C125.699 109.834 132.837 109.835 134.712 109.679C140.878 109.169 145.929 108.262 151.245 106.71C164.968 102.704 177.448 94.826 186.215 84.6356C187.556 83.076 187.708 82.8696 187.515 82.8695C187.421 82.8695 186.895 82.827 186.346 82.7751C180.099 82.1852 174.735 78.0223 171.271 71.0764C169.184 66.8912 168.029 62.4854 167.389 56.2601C167.232 54.732 167.233 47.1403 167.39 46.1794C167.696 44.3116 169.075 42.9094 170.881 42.6282C172.571 42.3652 174.323 43.3051 175.109 44.8966L175.447 45.5799L175.448 50.2616C175.45 55.3045 175.496 56.0303 176 59.0754C176.767 63.7137 178.394 67.8374 180.53 70.5603C182.624 73.2297 185.03 74.6176 187.572 74.6222C189.545 74.6255 191.329 73.8491 193.06 72.2326C196.057 69.4337 197.986 64.98 199.19 58.0765C199.652 55.4309 199.873 51.7557 199.778 48.3136C199.725 46.3774 199.736 46.0697 199.881 45.5585C200.197 44.4385 201.012 43.4769 202.063 42.9854C204.43 41.8779 207.093 43.1352 207.784 45.6867C207.985 46.4272 208.075 51.5957 207.926 53.7626C207.522 59.6007 206.655 63.8899 204.929 68.5892C203.644 72.0842 202.928 73.7343 201.431 76.6486C191.813 95.3667 172.592 109.926 150.19 115.462C143.004 117.238 136.376 118.036 129.125 117.999C127.377 117.989 125.722 117.971 125.447 117.957ZM62.9139 83.0884C61.0901 82.8339 60.4845 82.7256 59.5534 82.4877C54.8982 81.2979 51.187 78.7637 48.7416 75.1048C47.1697 72.7529 46.489 70.6652 46.4912 68.2028C46.492 67.0211 46.5243 66.7201 46.7329 65.9323C47.9602 61.2972 52.108 58.3318 58.9851 57.1728C62.7026 56.5462 67.897 56.463 73.4035 56.9417C74.1774 57.0091 74.8261 57.0485 74.845 57.0295C74.9986 56.8759 74.2433 54.2992 73.7652 53.3454C72.862 51.5437 71.3452 50.1724 69.4337 49.4297C66.156 48.156 61.3833 48.119 55.6295 49.3227C52.6992 49.9357 52.6326 49.9447 51.9361 49.8253C50.5789 49.5926 49.5194 48.7994 48.9024 47.5541C48.6096 46.9633 48.5668 46.7885 48.5353 46.0556C48.5061 45.3776 48.5357 45.119 48.6974 44.6406C49.1385 43.3356 50.1259 42.3576 51.3765 41.9871C52.078 41.7792 55.5273 41.0834 56.874 40.8781C59.5085 40.4764 60.4116 40.4124 63.368 40.4179C66.5382 40.4237 67.7086 40.5508 69.9979 41.1375C76.2835 42.7483 80.5596 46.9215 82.2891 53.1329C82.9411 55.4742 83.0778 56.684 83.0738 60.0746C83.0709 62.5461 83.0421 63.1393 82.8625 64.4339C82.4543 67.377 81.7306 70.4865 81.0241 72.3329C79.0581 77.4708 74.8929 81.1984 69.6083 82.5492C67.9381 82.9761 67.1821 83.069 65.1391 83.0984C64.0651 83.1145 63.0638 83.1093 62.9139 83.0884ZM66.6486 74.9209C70.138 74.3214 72.5276 72.3008 73.6227 69.0237C74.0868 67.6349 74.6173 65.2819 74.4848 65.2C74.4422 65.1737 73.7627 65.0944 72.9748 65.0239C65.087 64.3179 59.2202 64.8025 56.102 66.4176C55.2521 66.8578 54.6444 67.4641 54.5615 67.9545C54.335 69.2954 55.9013 71.7304 57.8277 73.0319C60.1989 74.634 63.8132 75.408 66.6486 74.9209ZM4.21609 82.9106C2.95161 82.5702 1.9241 81.6517 1.50631 80.4884C1.21747 79.6842 0.609378 74.1755 0.340612 69.9283C-0.113259 62.7559 -0.113535 52.9798 0.33977 45.7709C0.773066 38.8825 1.41083 34.7315 2.33506 32.784C3.44886 30.437 6.03871 29.5969 8.08429 30.9189C8.75349 31.3513 9.0897 31.7819 9.77918 33.0893C11.0262 35.4539 16.4405 44.1508 27.3321 61.284C30.1524 65.7204 32.4756 69.3344 32.4948 69.3152C32.5468 69.2631 32.697 68.1077 32.8518 66.568C33.9133 56.015 33.4488 41.5368 31.8334 34.8274C31.3519 32.8271 31.8582 31.3031 33.3339 30.3114C34.081 29.8093 34.4869 29.6959 35.5298 29.6978C36.3079 29.699 36.4527 29.7276 37.0033 29.987C37.7656 30.3461 38.4197 30.9498 38.7806 31.6272C39.2407 32.4908 39.7753 34.8866 40.1617 37.8158C40.787 42.5555 41.0697 47.6649 41.0694 54.2169C41.069 61.9746 40.6408 67.7653 39.6525 73.3793C39.1008 76.5135 38.1313 80.0265 37.5196 81.1082C36.7687 82.436 35.0672 83.2508 33.6109 82.98C32.0915 82.6974 31.5384 82.1638 29.5903 79.1005C28.7963 77.8519 25.4288 72.5597 22.107 67.34C16.4877 58.51 11.9635 51.354 9.28875 47.065C8.67354 46.0785 8.14105 45.2714 8.10543 45.2714C8.06979 45.2714 7.99237 46.1602 7.93335 47.2467C7.70448 51.4595 7.62507 55.4764 7.67977 60.0746C7.76206 66.9924 8.06314 71.9746 8.70333 77.012C8.99108 79.2762 8.96514 79.9663 8.56048 80.8142C8.04529 81.8935 7.02039 82.7003 5.84813 82.9492C5.22942 83.0805 4.8107 83.0706 4.21609 82.9106ZM89.0491 82.7372C87.537 82.395 86.2939 81.1547 85.9508 79.6457C85.6855 78.4793 85.5767 72.8924 85.7602 69.8567C86.2477 61.7864 88.1537 55.1623 91.4062 50.2339C94.1706 46.0451 97.8029 43.3924 101.89 42.5779C103.143 42.328 105.498 42.3501 106.726 42.6231C108.884 43.1029 110.936 44.0784 112.627 45.4292C113.366 46.0188 114.836 47.4769 115.481 48.2588C117.736 50.9939 119.669 55.0516 120.893 59.6205C122.221 64.5786 122.871 71.699 122.546 77.7386C122.454 79.437 122.308 79.935 121.646 80.804C119.912 83.0809 116.416 82.8728 114.938 80.4047C114.395 79.4976 114.349 79.1366 114.417 76.2855C114.668 65.6396 112.52 56.9651 108.61 52.8343C105.972 50.0477 103.151 49.8117 100.457 52.1522C95.7706 56.2224 93.2759 65.8338 93.9392 77.2622C94.0255 78.7482 94.0193 79.0568 93.8923 79.6264C93.4031 81.8193 91.2121 83.2266 89.0491 82.7372ZM130.951 82.7789C130.349 82.6713 129.403 82.193 128.931 81.7587C128.423 81.29 128.011 80.6351 127.802 79.9639C127.529 79.0877 127.416 76.5818 127.474 72.7015C127.534 68.6252 127.685 66.8023 128.221 63.662C130.196 52.0958 135.868 44.2624 143.459 42.6204C144.818 42.3264 147.179 42.3276 148.506 42.623C153.419 43.7163 157.528 47.3798 160.288 53.1271C162.426 57.5777 163.656 62.6425 164.192 69.2018C164.382 71.519 164.411 77.8905 164.236 78.9189C163.753 81.7685 160.653 83.2801 158.187 81.8692C157.536 81.497 156.826 80.7129 156.483 79.9871L156.192 79.3733L156.179 75.5136C156.161 69.8957 155.897 66.9007 155.093 63.1624C153.433 55.4435 149.571 50.2652 145.701 50.5696C142.027 50.8586 138.598 55.3661 136.898 62.1429C135.9 66.1212 135.547 69.8384 135.668 75.1049C135.708 76.8531 135.738 78.5696 135.734 78.9192C135.714 80.9209 134.031 82.6614 131.968 82.8158C131.653 82.8393 131.196 82.8223 130.951 82.7789Z" fill="#3EC5F0"/>
</svg>
