<svg width="246" height="140" viewBox="0 0 246 140" fill="none" xmlns="http://www.w3.org/2000/svg">
<path d="M148.366 139.604C134.591 138.89 122.24 135.93 109.373 130.259C107.017 129.221 102.172 126.789 99.7049 125.406C95.761 123.194 90.9185 120.134 90.141 119.361C88.1996 117.431 88.2942 114.181 90.3449 112.358C91.3931 111.426 92.9425 110.961 94.2392 111.19C95.1915 111.359 95.9446 111.735 97.9325 113.037C105.865 118.232 115.2 122.702 123.767 125.409C131.42 127.827 138.051 129.113 146.432 129.806C148.663 129.991 157.106 129.992 159.322 129.808C166.616 129.204 172.589 128.13 178.876 126.294C195.106 121.553 209.866 112.229 220.235 100.168C221.821 98.3224 222.001 98.0781 221.772 98.078C221.662 98.0779 221.04 98.0276 220.39 97.9662C213.002 97.2681 206.657 92.3412 202.561 84.1206C200.092 79.1673 198.727 73.9529 197.97 66.5852C197.784 64.7766 197.785 55.7917 197.971 54.6544C198.333 52.4438 199.963 50.7843 202.1 50.4514C204.098 50.1402 206.17 51.2526 207.1 53.1362L207.5 53.9449L207.502 59.4858C207.503 65.4542 207.558 66.3132 208.154 69.9172C209.061 75.4066 210.985 80.2872 213.511 83.5098C215.988 86.6691 218.834 88.3116 221.84 88.3171C224.173 88.321 226.283 87.4021 228.331 85.489C231.876 82.1764 234.157 76.9053 235.581 68.7348C236.127 65.6038 236.388 61.254 236.276 57.1803C236.213 54.8888 236.227 54.5246 236.397 53.9196C236.771 52.594 237.736 51.4559 238.978 50.8742C241.777 49.5634 244.927 51.0515 245.744 54.0713C245.982 54.9477 246.089 61.0647 245.912 63.6293C245.435 70.5389 244.41 75.6152 242.367 81.1769C240.848 85.3133 240.001 87.2663 238.23 90.7154C226.855 112.869 204.124 130.1 177.628 136.652C169.13 138.754 161.291 139.699 152.716 139.654C150.648 139.643 148.691 139.621 148.366 139.604ZM74.4078 98.3371C72.2508 98.0359 71.5345 97.9077 70.4333 97.6261C64.9277 96.218 60.5384 93.2187 57.6463 88.8882C55.7873 86.1048 54.9822 83.6339 54.9848 80.7196C54.9858 79.321 55.0239 78.9648 55.2706 78.0324C56.7221 72.5467 61.6277 69.037 69.7612 67.6653C74.1579 66.9238 80.3012 66.8252 86.8138 67.3918C87.729 67.4715 88.4962 67.5183 88.5187 67.4958C88.7003 67.314 87.807 64.2643 87.2416 63.1355C86.1733 61.0031 84.3794 59.3803 82.1187 58.5012C78.2422 56.9938 72.5976 56.95 65.7926 58.3745C62.327 59.1 62.2482 59.1108 61.4245 58.9694C59.8193 58.694 58.5662 57.7553 57.8364 56.2814C57.4902 55.5821 57.4396 55.3753 57.4023 54.5079C57.3678 53.7054 57.4028 53.3994 57.5941 52.8332C58.1157 51.2887 59.2836 50.1312 60.7626 49.6927C61.5922 49.4467 65.6717 48.6232 67.2645 48.3802C70.3802 47.9048 71.4483 47.829 74.9449 47.8355C78.6943 47.8424 80.0785 47.9928 82.7859 48.6872C90.2199 50.5936 95.2772 55.5327 97.3227 62.8841C98.0938 65.655 98.2555 67.0869 98.2507 71.0997C98.2473 74.0247 98.2133 74.7268 98.0009 76.259C97.5181 79.7423 96.6621 83.4224 95.8265 85.6076C93.5014 91.6885 88.5753 96.1001 82.3252 97.6989C80.3498 98.2042 79.4557 98.3142 77.0396 98.3489C75.7693 98.368 74.585 98.3618 74.4078 98.3371ZM78.8248 88.6706C82.9517 87.9611 85.7778 85.5697 87.073 81.6912C87.6219 80.0474 88.2493 77.2626 88.0925 77.1657C88.0422 77.1346 87.2386 77.0407 86.3068 76.9573C76.9779 76.1217 70.0393 76.6952 66.3514 78.6068C65.3462 79.1278 64.6275 79.8453 64.5295 80.4257C64.2616 82.0127 66.1141 84.8946 68.3923 86.435C71.1967 88.331 75.4714 89.2471 78.8248 88.6706ZM4.98634 98.1266C3.49084 97.7237 2.27562 96.6367 1.7815 95.26C1.43989 94.3081 0.720707 87.7884 0.40284 82.7617C-0.13395 74.2731 -0.134277 62.7028 0.401844 54.1709C0.914299 46.0184 1.66858 41.1055 2.76165 38.8006C4.07894 36.0229 7.14194 35.0286 9.56123 36.5932C10.3527 37.105 10.7503 37.6146 11.5658 39.1619C13.0406 41.9606 19.4441 52.2535 32.3255 72.5311C35.661 77.7817 38.4086 82.0589 38.4314 82.0362C38.4928 81.9745 38.6704 80.6071 38.8536 78.7848C40.109 66.295 39.5596 49.1598 37.6492 41.219C37.0796 38.8516 37.6784 37.048 39.4237 35.8742C40.3073 35.28 40.7873 35.1457 42.0209 35.148C42.941 35.1495 43.1124 35.1833 43.7636 35.4903C44.665 35.9153 45.4387 36.6298 45.8655 37.4316C46.4096 38.4536 47.042 41.2891 47.499 44.7559C48.2384 50.3655 48.5729 56.4126 48.5725 64.1669C48.572 73.3484 48.0656 80.2018 46.8968 86.8462C46.2442 90.5555 45.0976 94.7132 44.3741 95.9934C43.486 97.5649 41.4737 98.5292 39.7513 98.2087C37.9544 97.8743 37.3003 97.2427 34.9962 93.6172C34.0571 92.1396 30.0744 85.8761 26.1458 79.6984C19.4998 69.248 14.1491 60.7786 10.9857 55.7025C10.2581 54.535 9.62835 53.5797 9.58622 53.5797C9.54408 53.5797 9.45251 54.6317 9.38271 55.9175C9.11202 60.9035 9.01811 65.6576 9.0828 71.0997C9.18013 79.287 9.53622 85.1836 10.2934 91.1455C10.6337 93.8252 10.603 94.642 10.1244 95.6455C9.51511 96.9229 8.30296 97.8777 6.91653 98.1723C6.1848 98.3277 5.68957 98.316 4.98634 98.1266ZM105.318 97.9214C103.529 97.5164 102.059 96.0485 101.653 94.2626C101.34 92.8821 101.211 86.2698 101.428 82.677C102.005 73.1257 104.259 65.2859 108.105 59.4529C111.375 54.4955 115.671 51.356 120.504 50.392C121.987 50.0962 124.772 50.1223 126.224 50.4455C128.777 51.0133 131.203 52.1678 133.203 53.7666C134.077 54.4643 135.816 56.1901 136.578 57.1154C139.246 60.3525 141.532 65.1549 142.979 70.5623C144.55 76.4303 145.318 84.8575 144.934 92.0054C144.826 94.0156 144.653 94.6049 143.87 95.6334C141.819 98.3281 137.684 98.0818 135.936 95.1608C135.294 94.0873 135.24 93.66 135.32 90.2857C135.617 77.686 133.077 67.4195 128.452 62.5306C125.332 59.2326 121.996 58.9533 118.809 61.7234C113.267 66.5405 110.317 77.9159 111.101 91.4416C111.203 93.2003 111.196 93.5656 111.046 94.2397C110.467 96.8351 107.876 98.5007 105.318 97.9214ZM154.875 97.9708C154.163 97.8434 153.044 97.2774 152.486 96.7634C151.885 96.2086 151.397 95.4335 151.15 94.6392C150.828 93.6022 150.694 90.6363 150.762 86.0439C150.834 81.2195 151.012 79.0621 151.646 75.3454C153.981 61.6566 160.69 52.3855 169.668 50.4422C171.275 50.0942 174.067 50.0957 175.637 50.4453C181.447 51.7392 186.307 56.0751 189.572 62.8771C192.1 68.1445 193.555 74.1389 194.189 81.9019C194.413 84.6443 194.447 92.1853 194.241 93.4023C193.669 96.7749 190.004 98.564 187.087 96.8941C186.317 96.4536 185.477 95.5256 185.071 94.6666L184.727 93.9401L184.712 89.3721C184.69 82.7232 184.379 79.1785 183.428 74.7542C181.464 65.6186 176.896 59.49 172.319 59.8503C167.974 60.1923 163.919 65.527 161.908 73.5476C160.727 78.256 160.31 82.6554 160.453 88.8884C160.501 90.9575 160.536 92.9889 160.532 93.4027C160.507 95.7718 158.518 97.8317 156.078 98.0144C155.706 98.0422 155.164 98.0221 154.875 97.9708Z" fill="#FDFDFD"/>
<path d="M155.88 44.7559C154.998 44.5305 154.141 43.7618 153.844 42.9281C153.534 42.0605 153.743 40.8341 154.318 40.1552C154.478 39.9655 155.133 39.4001 155.774 38.8988C157.589 37.4773 159.201 36.0031 160.603 34.4809C161.848 33.1285 161.879 33.0827 161.579 33.0542C160.961 32.9955 159.749 32.6661 159.032 32.3618C154.501 30.4385 151.342 25.2832 150.419 18.3045C150.193 16.5986 150.096 12.8985 150.237 11.4145C150.357 10.1519 150.553 9.64771 151.136 9.09974C151.76 8.51252 152.155 8.36516 153.105 8.36555C154.077 8.36596 154.571 8.5625 155.168 9.18577C155.89 9.94012 155.946 10.2274 155.94 13.1534C155.936 14.5973 155.966 16.093 156.004 16.4773C156.433 20.7985 157.585 23.8312 159.54 25.7839C160.735 26.9779 161.361 27.2773 162.666 27.2785C163.485 27.2795 163.723 27.2368 164.223 27.0001C166.255 26.0395 167.747 23.7488 168.625 20.24C169.284 17.6057 169.486 15.8467 169.488 12.7464C169.489 10.6319 169.503 10.483 169.74 9.97446C170.262 8.85489 171.32 8.24164 172.576 8.33152C173.408 8.39108 173.832 8.57914 174.386 9.13372C175.146 9.89391 175.227 10.2287 175.268 12.7691C175.345 17.5442 174.657 21.3145 172.914 25.68C171.233 29.8888 169.255 33.1822 166.208 36.8498C164.014 39.4904 159.392 43.7067 157.803 44.5182C157.306 44.7717 156.387 44.8853 155.88 44.7559ZM186.029 34.3308C184.253 33.9349 182.933 33.3319 181.532 32.2755C179.28 30.5775 177.882 28.2738 177.039 24.8717C176.784 23.8418 176.757 23.5365 176.757 21.6903C176.758 19.5662 176.886 18.6279 177.424 16.7741C178.669 12.4896 181.941 9.31407 186.051 8.40191C187.374 8.10826 189.731 8.1661 190.971 8.52264C192.911 9.08066 195.018 10.4235 196.242 11.8827C197.81 13.7516 198.594 15.4491 199.289 18.4848C199.531 19.5413 199.564 19.9258 199.564 21.6709C199.564 23.5238 199.543 23.7365 199.246 24.8763C198.79 26.6277 198.454 27.5537 197.896 28.6028C196.41 31.399 194.117 33.2787 191.108 34.1673C189.796 34.5548 187.383 34.6325 186.029 34.3308ZM189.098 28.7215C190.71 28.4268 192.1 27.3225 192.891 25.7083C193.606 24.2493 193.711 23.7015 193.702 21.4753C193.694 19.6868 193.672 19.4677 193.4 18.5772C192.595 15.9366 191.026 14.3381 188.89 13.984C186.773 13.633 184.527 14.9378 183.465 17.1359C182.777 18.5579 182.557 19.6546 182.562 21.6365C182.566 22.98 182.609 23.4648 182.791 24.141C183.43 26.5246 185.062 28.2245 187.148 28.6785C187.976 28.8588 188.306 28.8661 189.098 28.7215ZM211.112 34.4596C210.599 34.3915 209.449 33.9951 208.748 33.645C205.355 31.9489 202.782 27.941 201.668 22.6152C201.145 20.1177 201.026 18.7938 201.023 15.4562C201.021 13.2767 201.061 12.1775 201.157 11.8017C201.578 10.1453 203.366 9.20754 204.957 9.80861C205.682 10.0823 206.435 10.8461 206.633 11.5076C206.718 11.7896 206.761 12.8796 206.761 14.7244C206.761 17.8435 206.868 19.2534 207.25 21.1689C208.145 25.6634 210.269 28.7626 212.454 28.7647C214.388 28.7666 216.267 26.2062 217.289 22.1763C217.785 20.2194 217.95 18.6376 218.002 15.3487C218.055 11.9709 218.093 11.7219 218.683 10.908C219.351 9.98446 220.917 9.60986 222.031 10.1067C222.7 10.405 223.359 11.1028 223.561 11.7272C223.947 12.9218 223.862 17.8126 223.403 20.8452C222.28 28.2699 218.984 33.1418 214.283 34.3276C213.522 34.5195 212.03 34.5816 211.112 34.4596ZM123.726 33.4097C123.638 33.3888 123.203 33.3134 122.76 33.242C117.55 32.4037 113.145 28.4046 111.809 23.3002C110.736 19.1988 111.839 15.1066 114.814 12.1548C117.5 9.49043 121.338 8.06947 126.546 7.81148C127.359 7.77125 128.023 7.70795 128.023 7.67085C128.023 7.29094 127.647 4.73217 127.483 3.99365C127.229 2.8539 127.225 2.69917 127.432 2.00207C127.775 0.844912 128.889 0.00909595 130.099 9.69226e-05C131.25 -0.00848629 132.192 0.553348 132.701 1.5511C133.638 3.38827 134.277 11.3782 134.037 18.2507C133.856 23.439 133.346 27.1736 132.416 30.1128C132.023 31.3574 131.907 31.5832 131.401 32.0877C130.596 32.891 128.583 33.3651 125.767 33.4147C124.734 33.433 123.815 33.4307 123.726 33.4097ZM127.13 27.5191C127.296 27.3523 127.743 24.9354 127.961 23.0338C128.177 21.1409 128.343 17.8751 128.344 15.483L128.345 13.5752H127.242C124.588 13.5752 121.935 14.1874 120.216 15.1964C119.872 15.3984 119.249 15.9022 118.831 16.316C117.564 17.5705 117.095 18.8119 117.206 20.6154C117.421 24.1156 120.386 27.1321 124.12 27.6487C125.055 27.7781 126.955 27.6964 127.13 27.5191ZM227.941 32.9326C227.276 32.7026 226.621 32.1119 226.303 31.454C225.973 30.7714 225.848 28.8331 225.838 24.2161C225.828 19.9717 225.912 18.8754 226.422 16.5847C227.178 13.1855 228.733 10.9101 231.091 9.75184C232.481 9.06927 233.089 8.9319 234.976 8.87363C236.719 8.81978 237.753 8.93903 239.926 9.44492C241.192 9.7395 241.696 9.97113 242.17 10.4756C242.648 10.9837 242.869 11.4759 242.931 12.1684C243.033 13.3022 242.532 14.2875 241.544 14.8988C240.819 15.3473 240.084 15.3831 238.611 15.0419C236.236 14.4921 234.566 14.4347 233.707 14.8733C232.648 15.4139 232.014 17.0555 231.682 20.113C231.526 21.5561 231.524 26.3529 231.679 28.6581C231.785 30.2426 231.779 30.5403 231.627 31.0609C231.394 31.8636 230.686 32.6224 229.894 32.919C229.179 33.1868 228.687 33.1903 227.941 32.9326ZM59.8515 32.8053C59.233 32.6259 58.5033 32.0367 58.1786 31.4546C57.918 30.9874 57.8376 30.6418 57.6659 29.2512C56.9163 23.1814 56.81 14.6012 57.4023 7.98592C57.7926 3.62705 58.3154 1.79392 59.4056 0.961893C60.175 0.374635 60.0212 0.38537 68.2996 0.341491C75.9085 0.30115 75.9833 0.302856 76.4622 0.525619C77.5964 1.05318 78.1826 1.94714 78.1785 3.14335C78.1745 4.29503 77.6458 5.17426 76.6362 5.70716L76.0862 5.99745L69.8043 6.02769C66.3492 6.04428 63.4855 6.0947 63.4406 6.13965C63.2908 6.28956 62.82 11.8654 62.82 13.4898V13.8106L66.8751 13.7735L70.9301 13.7363L71.4981 13.9931C73.745 15.0091 73.7588 18.1652 71.521 19.2078C71.061 19.4221 70.8383 19.4345 66.9288 19.4646L62.8201 19.4963L62.821 20.5395C62.8225 22.0555 63.1089 26.3579 63.3427 28.3799C63.5618 30.2734 63.5239 30.8533 63.1408 31.4737C62.4534 32.5864 61.0526 33.1536 59.8515 32.8053ZM80.372 32.8265C79.4261 32.5838 78.5196 31.7396 78.2904 30.8879C78.2184 30.6202 78.1701 26.885 78.1532 20.2783L78.1272 10.0819L78.4605 9.4907C79.0197 8.49864 79.8758 7.98788 80.9815 7.98653C82.0956 7.98503 83.0236 8.56573 83.5182 9.57351L83.8204 10.1893L83.8499 20.3253C83.8698 27.1689 83.8427 30.5977 83.7664 30.8811C83.4123 32.197 81.7135 33.1706 80.372 32.8265ZM89.0736 32.7071C88.4102 32.4437 87.7862 31.8514 87.4994 31.2128C87.0614 30.2376 86.9996 26.1326 87.3731 22.8188C87.7273 19.6768 88.5358 16.743 89.6581 14.5271C91.3036 11.2784 93.5413 9.17775 96.281 8.30982C97.3201 7.98063 99.2215 7.89828 100.255 8.1377C106.438 9.56927 110.179 17.3219 109.959 28.2467C109.92 30.1975 109.893 30.4462 109.672 30.9339C109.177 32.0262 108.214 32.6409 107.023 32.6236C106.244 32.6124 105.712 32.4028 105.133 31.8792C104.29 31.1173 104.234 30.9052 104.213 28.408C104.183 24.7602 104.036 23.0006 103.592 20.9337C102.676 16.6701 100.632 13.7391 98.5831 13.7517C96.6487 13.7636 94.6049 16.4677 93.6512 20.2768C93.0723 22.5894 92.9671 23.645 92.948 27.3339C92.9316 30.4941 92.9157 30.7527 92.7109 31.2033C92.0756 32.601 90.4741 33.2631 89.0736 32.7071Z" fill="white"/>
</svg>
