<svg width="26" height="26" viewBox="0 0 26 26" fill="none" xmlns="http://www.w3.org/2000/svg">
<path d="M23.207 0.457031C21.8438 0.457031 20.7063 1.43899 20.4629 2.73259C15.3687 4.8976 7.39446 4.92578 7.3125 4.92578H3.80859C1.70854 4.92578 0 6.63432 0 8.73438V12.3906C0 14.4907 1.70854 16.1992 3.80859 16.1992H6.69607L8.04202 22.5114C8.40826 24.268 9.97633 25.543 11.7706 25.543C13.0749 25.543 14.0427 24.3436 13.7777 23.074L13.2269 20.4305C14.7242 19.9412 15.8992 18.7381 16.3522 17.2291C17.7806 17.4904 19.1717 17.847 20.4631 18.3934C20.7069 19.6865 21.8442 20.668 23.207 20.668C24.7471 20.668 26 19.415 26 17.875V3.25C26 1.70996 24.7471 0.457031 23.207 0.457031ZM15.9015 15.6079C15.0599 15.4503 10.7453 14.9015 8.07422 14.7205V6.43673C10.1499 6.38061 15.987 6.07293 20.4141 4.3937V16.7354C18.9683 16.1987 17.4292 15.8572 15.9015 15.6079ZM1.52344 12.3906V8.73438C1.52344 7.47434 2.54856 6.44922 3.80859 6.44922H6.55078V14.6758H3.80859C2.54856 14.6758 1.52344 13.6507 1.52344 12.3906ZM11.7706 24.0195C10.694 24.0195 9.7531 23.2545 9.53271 22.1971L8.26698 16.2612C9.10701 16.3223 9.98664 16.4032 10.8518 16.4988L12.2864 23.3851C12.3547 23.7126 12.1053 24.0195 11.7706 24.0195ZM12.9134 18.9255L12.4464 16.6837C13.2379 16.7757 14.0353 16.8706 14.8282 16.9837C14.5002 17.8732 13.799 18.5849 12.9134 18.9255ZM24.4766 17.875C24.4766 18.575 23.9071 19.1445 23.207 19.1445C22.507 19.1445 21.9375 18.575 21.9375 17.875V3.25C21.9375 2.54998 22.507 1.98047 23.207 1.98047C23.9071 1.98047 24.4766 2.54998 24.4766 3.25V17.875Z" fill="#82AAB7"/>
</svg>
