<svg width="30" height="30" viewBox="0 0 30 30" fill="none" xmlns="http://www.w3.org/2000/svg">
<path d="M23.75 10.275C24.2471 10.275 24.65 9.87206 24.65 9.375C24.65 8.87794 24.2471 8.475 23.75 8.475V10.275ZM12.5 8.475C12.0029 8.475 11.6 8.87794 11.6 9.375C11.6 9.87206 12.0029 10.275 12.5 10.275V8.475ZM23.75 8.475H12.5V10.275H23.75V8.475Z" fill="#455A64"/>
<path d="M17.5 21.525C17.9971 21.525 18.4 21.1221 18.4 20.625C18.4 20.1279 17.9971 19.725 17.5 19.725V21.525ZM6.25 19.725C5.75294 19.725 5.35 20.1279 5.35 20.625C5.35 21.1221 5.75294 21.525 6.25 21.525V19.725ZM17.5 19.725H6.25V21.525H17.5V19.725Z" fill="#455A64"/>
<circle cx="7.5" cy="9.375" r="5" stroke="#455A64" stroke-width="1.8"/>
<ellipse cx="22.5" cy="20.625" rx="5" ry="5" stroke="#455A64" stroke-width="1.8"/>
</svg>

