<svg width="112" height="112" viewBox="0 0 112 112" fill="none" xmlns="http://www.w3.org/2000/svg">
<circle cx="56" cy="56" r="56" fill="#3EC5F0"/>
<path d="M73.4168 66.0833C73.4168 66.9232 73.0832 67.7286 72.4893 68.3225C71.8955 68.9164 71.09 69.25 70.2502 69.25H41.7502C40.9103 69.25 40.1049 68.9164 39.511 68.3225C38.9171 67.7286 38.5835 66.9232 38.5835 66.0833V48.6667C38.5835 47.8268 38.9171 47.0214 39.511 46.4275C40.1049 45.8336 40.9103 45.5 41.7502 45.5H48.0835L51.2502 40.75H60.7502L63.9168 45.5H70.2502C71.09 45.5 71.8955 45.8336 72.4893 46.4275C73.0832 47.0214 73.4168 47.8268 73.4168 48.6667V66.0833Z" stroke="#FDFDFD" stroke-width="2" stroke-linecap="round" stroke-linejoin="round"/>
<path d="M55.9998 62.9167C59.4976 62.9167 62.3332 60.0811 62.3332 56.5833C62.3332 53.0855 59.4976 50.25 55.9998 50.25C52.502 50.25 49.6665 53.0855 49.6665 56.5833C49.6665 60.0811 52.502 62.9167 55.9998 62.9167Z" stroke="#FDFDFD" stroke-width="2" stroke-linecap="round" stroke-linejoin="round"/>
</svg>

