<svg width="20" height="20" viewBox="0 0 20 20" fill="none" xmlns="http://www.w3.org/2000/svg">
<path fill-rule="evenodd" clip-rule="evenodd" d="M18.6667 16.6668L18.6667 13.3335H19.2409C19.6601 13.3335 20 12.9936 20 12.5744V7.42591C20 7.00668 19.6602 6.66683 19.2409 6.66683H18.6667V3.3335C18.6667 2.22893 17.7712 1.3335 16.6667 1.3335H2C0.895432 1.3335 0 2.22893 0 3.3335V16.6668C0 17.7714 0.895428 18.6668 2 18.6668H16.6667C17.7712 18.6668 18.6667 17.7714 18.6667 16.6668ZM18.6667 8.00016V12.0002L12.6667 12.0002C11.5621 12.0002 10.6667 11.1047 10.6667 10.0002C10.6667 8.89559 11.5621 8.00016 12.6667 8.00016H18.6667Z" fill="#B0BEC5"/>
</svg>

