<svg width="20" height="19" viewBox="0 0 20 19" fill="none" xmlns="http://www.w3.org/2000/svg">
<g clip-path="url(#clip0)">
<path d="M3.01371 11.2848C2.86997 11.4214 2.81088 11.6189 2.85761 11.8069L3.59803 14.7869L0.171679 18.0419C-0.0573889 18.2595 -0.0573889 18.6123 0.171679 18.8299C0.286212 18.9387 0.43633 18.9931 0.586409 18.9931C0.736487 18.9931 0.886644 18.9387 1.00114 18.8299L4.41494 15.5868L7.56702 16.2789C7.61086 16.2885 7.65512 16.2932 7.69911 16.2932C7.85291 16.2932 8.00264 16.2357 8.11384 16.13L14.9676 9.61898L15.7358 10.3487C15.8503 10.4575 16.0004 10.5119 16.1505 10.5119C16.3006 10.5119 16.4507 10.4575 16.5652 10.3487C16.7943 10.1311 16.7943 9.77831 16.5652 9.56069L15.7971 8.83096L18.4373 6.32275C18.5473 6.21825 18.6091 6.07653 18.6091 5.92875C18.6091 5.78098 18.5474 5.63922 18.4373 5.53476L16.7167 3.90016L17.5771 3.08283L18.9986 4.43328C19.1131 4.54208 19.2632 4.59651 19.4133 4.59651C19.5634 4.59651 19.7135 4.54208 19.828 4.43328C20.0571 4.2157 20.0571 3.86287 19.828 3.64525L16.172 0.171972C15.943 -0.0456052 15.5716 -0.0456052 15.3425 0.171972C15.1135 0.389549 15.1135 0.742382 15.3425 0.959996L16.7476 2.29481L15.8872 3.1121L14.1667 1.47754C13.9376 1.25997 13.5662 1.25997 13.3372 1.47754L10.6969 3.98575L9.92879 3.25601C9.69972 3.03844 9.32832 3.03847 9.09929 3.25601C8.87022 3.47359 8.87022 3.82642 9.09929 4.04404L9.86743 4.77378L3.01371 11.2848ZM7.51439 15.1235L4.73539 14.5133L4.07447 11.8532L5.14907 10.8323L5.79861 11.4494C5.91315 11.5582 6.06326 11.6126 6.21334 11.6126C6.36342 11.6126 6.51358 11.5582 6.62807 11.4494C6.85714 11.2318 6.85714 10.879 6.62807 10.6614L5.97853 10.0443L7.0667 9.01053L8.18302 10.071C8.29755 10.1798 8.44767 10.2342 8.59775 10.2342C8.74783 10.2342 8.89798 10.1798 9.01248 10.071C9.24155 9.85342 9.24155 9.50059 9.01248 9.28297L7.89616 8.22247L8.98432 7.18871L9.63383 7.80578C9.74837 7.91462 9.89848 7.96901 10.0486 7.96901C10.1987 7.96901 10.3488 7.91458 10.4633 7.80578C10.6924 7.5882 10.6924 7.23537 10.4633 7.01775L9.81379 6.40068L10.6969 5.56177L14.1381 8.83092L7.51439 15.1235ZM14.9676 8.04293L11.5264 4.77378L13.7519 2.65956L17.1931 5.92872L14.9676 8.04293Z" fill="white"/>
</g>
<defs>
<clipPath id="clip0">
<rect width="20" height="19" fill="white"/>
</clipPath>
</defs>
</svg>

